<?xml version="1.0" encoding="UTF-8" standalone="no"?>
<!-- Created with Inkscape (http://www.inkscape.org/) -->
<svg
   xmlns:svg="http://www.w3.org/2000/svg"
   xmlns="http://www.w3.org/2000/svg"
   version="1.0"
   width="744.09448"
   height="407.48032"
   id="svg4313">
  <defs
     id="defs4315" />
  <g
     transform="translate(-760.2079,131.6953)"
     id="layer1">
    <g
       transform="matrix(4.204338,0,0,4.204338,-2418.246,-758.1129)"
       id="g9056">
      <path
         d="M 772.27026,215.02624 C 772.27026,216.17588 771.33286,217.10443 770.18322,217.10443 C 769.03358,217.10443 768.09618,216.17588 768.11387,215.02624 C 768.09618,213.8766 769.03358,212.94274 770.18322,212.94274 C 771.33286,212.94274 772.27026,213.8766 772.27026,215.02624"
         style="fill:#ed7901;fill-rule:evenodd;stroke:none"
         id="path8752" />
      <path
         d="M 780.98983,215.02624 C 780.98983,216.40403 779.87556,217.52184 778.496,217.52184 C 777.11643,217.52184 776.00216,216.40403 776.00216,215.02624 C 776.00216,213.64844 777.11643,212.52887 778.496,212.52887 C 779.87556,212.52887 780.98983,213.64844 780.98983,215.02624"
         style="fill:#ed7901;fill-rule:evenodd;stroke:none"
         id="path8754" />
      <path
         d="M 789.72709,215.02624 C 789.72709,216.63396 788.43596,217.93748 786.82646,217.93748 C 785.21697,217.93748 783.90815,216.63396 783.90815,215.02624 C 783.90815,213.41851 785.21697,212.115 786.82646,212.115 C 788.41827,212.115 789.72709,213.41851 789.72709,215.02624"
         style="fill:#ed7901;fill-rule:evenodd;stroke:none"
         id="path8756" />
      <path
         d="M 763.533,215.02624 C 763.533,215.94595 762.79015,216.68879 761.87044,216.68879 C 760.95073,216.68879 760.20789,215.94595 760.20789,215.02624 C 760.20789,214.10829 760.95073,213.36191 761.87044,213.36191 C 762.79015,213.36191 763.533,214.10829 763.533,215.02624"
         style="fill:#ed7901;fill-rule:evenodd;stroke:none"
         id="path8758" />
      <path
         d="M 772.25257,206.70638 C 772.27026,207.85956 771.33286,208.78635 770.18322,208.78635 C 769.03358,208.78635 768.09618,207.85956 768.11387,206.70638 C 768.09618,205.56028 769.03358,204.62819 770.18322,204.62819 C 771.33286,204.62819 772.27026,205.56028 772.25257,206.70638"
         style="fill:#ed7901;fill-rule:evenodd;stroke:none"
         id="path8760" />
      <path
         d="M 780.98983,206.70638 C 780.98983,208.08595 779.87556,209.20375 778.496,209.20375 C 777.11643,209.20375 776.00216,208.08595 776.00216,206.70638 C 776.00216,205.33035 777.11643,204.21255 778.496,204.21255 C 779.87556,204.21255 780.98983,205.33035 780.98983,206.70638"
         style="fill:#ed7901;fill-rule:evenodd;stroke:none"
         id="path8762" />
      <path
         d="M 789.72709,206.70638 C 789.72709,208.31765 788.43596,209.61939 786.82646,209.61939 C 785.21697,209.61939 783.90815,208.31765 783.90815,206.70638 C 783.90815,205.10043 785.21697,203.79868 786.82646,203.79868 C 788.43596,203.79868 789.72709,205.10043 789.72709,206.70638"
         style="fill:#ed7901;fill-rule:evenodd;stroke:none"
         id="path8764" />
      <path
         d="M 798.46435,206.70815 C 798.46435,208.54934 796.97866,210.03503 795.13924,210.03503 C 793.29982,210.03503 791.81413,208.54934 791.81413,206.70815 C 791.81413,204.8705 793.29982,203.3795 795.13924,203.3795 C 796.97866,203.3795 798.46435,204.8705 798.46435,206.70815"
         style="fill:#ed7901;fill-rule:evenodd;stroke:none"
         id="path8766" />
      <path
         d="M 763.533,206.70638 C 763.533,207.62786 762.79015,208.37071 761.87044,208.37071 C 760.95073,208.37071 760.20789,207.62786 760.20789,206.70638 C 760.20789,205.78667 760.95073,205.04206 761.87044,205.04206 C 762.79015,205.04206 763.533,205.78667 763.533,206.70638"
         style="fill:#ed7901;fill-rule:evenodd;stroke:none"
         id="path8768" />
      <path
         d="M 772.27026,198.39007 C 772.27026,199.53617 771.33286,200.47003 770.18322,200.47003 C 769.03358,200.47003 768.09618,199.53617 768.09618,198.39007 C 768.09618,197.24043 769.03358,196.31011 770.18322,196.31011 C 771.33286,196.31011 772.27026,197.24043 772.27026,198.39007"
         style="fill:#002f62;fill-opacity:1;fill-rule:evenodd;stroke:none"
         id="path8770" />
      <path
         d="M 780.98983,198.39007 C 780.98983,199.7661 779.87556,200.8839 778.496,200.8839 C 777.11643,200.8839 776.00216,199.7661 776.00216,198.39007 C 776.00216,197.01404 777.11643,195.8927 778.496,195.8927 C 779.87556,195.8927 780.98983,197.01404 780.98983,198.39007"
         style="fill:#002f62;fill-opacity:1;fill-rule:evenodd;stroke:none"
         id="path8772" />
      <path
         d="M 789.72709,198.39007 C 789.72709,199.9978 788.43596,201.30131 786.82646,201.30131 C 785.21697,201.30131 783.90815,199.9978 783.90815,198.39007 C 783.90815,196.78411 785.21697,195.47883 786.82646,195.47883 C 788.41827,195.47883 789.72709,196.78411 789.72709,198.39007"
         style="fill:#002f62;fill-opacity:1;fill-rule:evenodd;stroke:none"
         id="path8774" />
      <path
         d="M 798.46435,198.39007 C 798.46435,200.22772 796.97866,201.71695 795.13924,201.71695 C 793.29982,201.71695 791.81413,200.22772 791.81413,198.39007 C 791.81413,196.55242 793.29982,195.06142 795.13924,195.06142 C 796.97866,195.06142 798.46435,196.55242 798.46435,198.39007"
         style="fill:#002f62;fill-opacity:1;fill-rule:evenodd;stroke:none"
         id="path8776" />
      <path
         d="M 807.20161,198.39007 C 807.20161,200.45942 805.52137,202.13082 803.45202,202.13082 C 801.38266,202.13082 799.72011,200.45942 799.72011,198.39007 C 799.72011,196.32426 801.38266,194.64578 803.45202,194.64578 C 805.52137,194.64578 807.20161,196.32426 807.20161,198.39007"
         style="fill:#002f62;fill-opacity:1;fill-rule:evenodd;stroke:none"
         id="path8778" />
      <path
         d="M 763.533,198.39007 C 763.533,199.30978 762.79015,200.05263 761.87044,200.05263 C 760.95073,200.05263 760.20789,199.30978 760.20789,198.39007 C 760.20789,197.47213 760.95073,196.72575 761.87044,196.72575 C 762.79015,196.72575 763.533,197.47213 763.533,198.39007"
         style="fill:#002f62;fill-opacity:1;fill-rule:evenodd;stroke:none"
         id="path8780" />
      <path
         d="M 772.27026,190.07022 C 772.27026,191.21986 771.33286,192.15018 770.18322,192.15018 C 769.03358,192.15018 768.09618,191.21986 768.11387,190.07022 C 768.09618,188.92412 769.03358,187.99025 770.18322,187.99025 C 771.33286,187.99025 772.25257,188.92412 772.27026,190.07022"
         style="fill:#ed7901;fill-rule:evenodd;stroke:none"
         id="path8782" />
      <path
         d="M 780.98983,190.07022 C 780.98983,191.45155 779.87556,192.56759 778.496,192.56759 C 777.11643,192.56759 776.00216,191.45155 776.00216,190.07022 C 776.00216,188.69242 777.11643,187.57285 778.496,187.57285 C 779.87556,187.57285 780.98983,188.69242 780.98983,190.07022"
         style="fill:#ed7901;fill-rule:evenodd;stroke:none"
         id="path8784" />
      <path
         d="M 789.72709,190.07022 C 789.72709,191.68148 788.43596,192.98323 786.82646,192.98323 C 785.21697,192.98323 783.90815,191.68148 783.90815,190.07022 C 783.90815,188.46603 785.21697,187.15898 786.82646,187.15898 C 788.41827,187.15898 789.72709,188.46603 789.72709,190.07022"
         style="fill:#ed7901;fill-rule:evenodd;stroke:none"
         id="path8786" />
      <path
         d="M 798.46435,190.07552 C 798.46435,191.90964 796.97866,193.39887 795.13924,193.39887 C 793.29982,193.39887 791.81413,191.90964 791.81413,190.07552 C 791.81413,188.23433 793.29982,186.74334 795.13924,186.74334 C 796.97866,186.74334 798.46435,188.23433 798.46435,190.07552"
         style="fill:#ed7901;fill-rule:evenodd;stroke:none"
         id="path8788" />
      <path
         d="M 807.20161,190.07552 C 807.20161,192.1378 805.52137,193.8145 803.45202,193.8145 C 801.38266,193.8145 799.72011,192.1378 799.72011,190.07552 C 799.72011,188.0044 801.38266,186.32947 803.45202,186.32947 C 805.52137,186.32947 807.20161,188.0044 807.20161,190.07552"
         style="fill:#ed7901;fill-rule:evenodd;stroke:none"
         id="path8790" />
      <path
         d="M 772.25257,223.34432 C 772.27026,224.49219 771.33286,225.42251 770.18322,225.42251 C 769.03358,225.42251 768.09618,224.49219 768.09618,223.34432 C 768.09618,222.19291 769.03358,221.26436 770.18322,221.26436 C 771.33286,221.26436 772.27026,222.19291 772.25257,223.34432"
         style="fill:#ed7901;fill-rule:evenodd;stroke:none"
         id="path8792" />
      <path
         d="M 780.98983,223.34432 C 780.98983,224.72035 779.87556,225.83638 778.496,225.83638 C 777.11643,225.83638 776.00216,224.72035 776.00216,223.34432 C 776.00216,221.96652 777.11643,220.84872 778.496,220.84872 C 779.87556,220.84872 780.98983,221.96652 780.98983,223.34432"
         style="fill:#ed7901;fill-rule:evenodd;stroke:none"
         id="path8794" />
      <path
         d="M 763.533,223.34432 C 763.533,224.26226 762.79015,225.00687 761.87044,225.00687 C 760.95073,225.00687 760.20789,224.26226 760.20789,223.34432 C 760.20789,222.42461 760.95073,221.67823 761.87044,221.67823 C 762.79015,221.67823 763.533,222.42461 763.533,223.34432"
         style="fill:#ed7901;fill-rule:evenodd;stroke:none"
         id="path8796" />
      <path
         d="M 763.533,239.98049 C 763.533,240.89666 762.79015,241.64304 761.87044,241.64304 C 760.95073,241.64304 760.20789,240.89666 760.20789,239.98049 C 760.20789,239.05901 760.95073,238.31616 761.87044,238.31616 C 762.79015,238.31616 763.533,239.05901 763.533,239.98049"
         style="fill:#ed7901;fill-rule:evenodd;stroke:none"
         id="path8798" />
      <path
         d="M 772.27026,231.6624 C 772.27026,232.81204 771.33286,233.7406 770.18322,233.7406 C 769.03358,233.7406 768.11387,232.81204 768.09618,231.6624 C 768.09618,230.51276 769.03358,229.58067 770.18322,229.58067 C 771.33286,229.58067 772.27026,230.51276 772.27026,231.6624"
         style="fill:#ed7901;fill-rule:evenodd;stroke:none"
         id="path8800" />
      <path
         d="M 763.533,231.6624 C 763.533,232.58035 762.79015,233.32496 761.87044,233.32496 C 760.95073,233.32496 760.20789,232.58035 760.20789,231.6624 C 760.20789,230.74446 760.95073,229.99808 761.87044,229.99808 C 762.79015,229.99808 763.533,230.74446 763.533,231.6624"
         style="fill:#ed7901;fill-rule:evenodd;stroke:none"
         id="path8802" />
      <path
         d="M 780.98983,181.7539 C 780.98983,183.12993 779.87556,184.24774 778.496,184.24774 C 777.11643,184.24774 776.00216,183.12993 776.00216,181.7539 C 776.00216,180.3761 777.11643,179.2583 778.496,179.2583 C 779.87556,179.2583 780.98983,180.3761 780.98983,181.7539"
         style="fill:#ed7901;fill-rule:evenodd;stroke:none"
         id="path8804" />
      <path
         d="M 789.72709,181.7539 C 789.72709,183.35986 788.43596,184.66514 786.82646,184.66514 C 785.21697,184.66514 783.90815,183.35986 783.90815,181.7539 C 783.90815,180.14795 785.21697,178.84089 786.82646,178.84089 C 788.43596,178.84089 789.72709,180.14795 789.72709,181.7539"
         style="fill:#ed7901;fill-rule:evenodd;stroke:none"
         id="path8806" />
      <path
         d="M 798.46435,181.7539 C 798.46435,183.59156 796.97866,185.08078 795.13924,185.08078 C 793.29982,185.08078 791.81413,183.59156 791.81413,181.7539 C 791.81413,179.91625 793.29982,178.42879 795.13924,178.42879 C 796.97866,178.42879 798.46435,179.91625 798.46435,181.7539"
         style="fill:#ed7901;fill-rule:evenodd;stroke:none"
         id="path8808" />
      <path
         d="M 807.20161,181.7539 C 807.20161,183.82325 805.52137,185.49642 803.45202,185.49642 C 801.38266,185.49642 799.72011,183.82325 799.72011,181.7539 C 799.72011,179.68809 801.38266,178.00962 803.45202,178.00962 C 805.52137,178.00962 807.20161,179.68809 807.20161,181.7539"
         style="fill:#ed7901;fill-rule:evenodd;stroke:none"
         id="path8810" />
      <path
         d="M 789.72709,173.43759 C 789.72709,175.04532 788.43596,176.34529 786.82646,176.34529 C 785.21697,176.34529 783.90815,175.04532 783.90815,173.43759 C 783.90815,171.82986 785.21697,170.52458 786.82646,170.52458 C 788.43596,170.52458 789.72709,171.82986 789.72709,173.43759"
         style="fill:#ed7901;fill-rule:evenodd;stroke:none"
         id="path8812" />
      <path
         d="M 798.46435,173.43759 C 798.46435,175.27347 796.97866,176.76447 795.13924,176.76447 C 793.29982,176.76447 791.81413,175.27347 791.81413,173.43759 C 791.81413,171.59993 793.29982,170.10894 795.13924,170.10894 C 796.97866,170.10894 798.46435,171.59993 798.46435,173.43759"
         style="fill:#ed7901;fill-rule:evenodd;stroke:none"
         id="path8814" />
      <path
         d="M 807.20161,173.43759 C 807.20161,175.50517 805.52137,177.18188 803.45202,177.18188 C 801.38266,177.18188 799.72011,175.50517 799.72011,173.43759 C 799.72011,171.37001 801.38266,169.6933 803.45202,169.6933 C 805.52137,169.6933 807.20161,171.37001 807.20161,173.43759"
         style="fill:#ed7901;fill-rule:evenodd;stroke:none"
         id="path8816" />
      <path
         d="M 798.46435,165.11774 C 798.46435,166.95539 796.97866,168.44462 795.13924,168.44462 C 793.29982,168.44462 791.81413,166.95539 791.81413,165.11774 C 791.81413,163.28008 793.29982,161.78909 795.13924,161.78909 C 796.97866,161.78909 798.46435,163.28008 798.46435,165.11774"
         style="fill:#ed7901;fill-rule:evenodd;stroke:none"
         id="path8818" />
      <path
         d="M 807.20161,165.11774 C 807.20161,167.18532 805.52137,168.86202 803.45202,168.86202 C 801.38266,168.86202 799.72011,167.18532 799.70242,165.11774 C 799.72011,163.05192 801.38266,161.37345 803.45202,161.37345 C 805.52137,161.37345 807.20161,163.05192 807.20161,165.11774"
         style="fill:#ed7901;fill-rule:evenodd;stroke:none"
         id="path8820" />
      <path
         d="M 807.20161,156.76782 C 807.20161,158.83363 805.52137,160.5121 803.45202,160.5121 C 801.38266,160.5121 799.72011,158.83363 799.72011,156.76782 C 799.72011,154.70024 801.38266,153.0253 803.45202,153.0253 C 805.52137,153.0253 807.20161,154.70024 807.20161,156.76782"
         style="fill:#ed7901;fill-rule:evenodd;stroke:none"
         id="path8822" />
      <path
         d="M 819.52928,231.93478 L 819.95376,231.93478 C 821.29796,231.93478 822.11155,232.1877 822.11155,233.61325 C 822.11155,235.10248 821.08572,235.29173 819.95376,235.29173 L 819.52928,235.29173 L 819.52928,231.93478 z M 817.45993,241.70671 L 820.51974,241.70671 C 822.18229,241.70671 824.74687,241.51747 824.74687,238.71235 C 824.74687,236.71728 823.40268,236.13185 822.27073,235.89484 L 822.27073,235.86301 C 823.11969,235.62424 824.19859,234.91146 824.19859,233.36033 C 824.19859,231.19017 822.34148,230.77806 820.51974,230.77806 L 817.45993,230.77806 L 817.45993,241.70671 z M 819.52928,236.44844 L 819.95376,236.44844 C 821.74013,236.44844 822.65984,236.98789 822.65984,238.47534 C 822.65984,240.23341 821.31564,240.39259 819.95376,240.39259 L 819.52928,240.39259 L 819.52928,236.44844"
         style="fill:#002f62;fill-opacity:1;fill-rule:nonzero;stroke:none"
         id="path8824" />
      <path
         d="M 830.26514,232.61572 L 830.30052,232.61572 L 831.76852,237.44597 L 828.76177,237.44597 L 830.26514,232.61572 z M 825.57815,241.70671 L 827.41758,241.70671 L 828.40803,238.60269 L 832.12225,238.60269 L 833.07734,241.70671 L 835.2705,241.70671 L 831.46784,230.77806 L 829.34543,230.77806 L 825.57815,241.70671"
         style="fill:#002f62;fill-opacity:1;fill-rule:nonzero;stroke:none"
         id="path8826" />
      <path
         d="M 836.597,230.77806 L 838.86091,230.77806 L 843.08804,238.88744 L 843.12342,238.88744 L 843.12342,230.77806 L 844.82135,230.77806 L 844.82135,241.70671 L 842.76968,241.70671 L 838.33031,233.20115 L 838.29493,233.20115 L 838.29493,241.70671 L 836.597,241.70671 L 836.597,230.77806"
         style="fill:#002f62;fill-opacity:1;fill-rule:nonzero;stroke:none"
         id="path8828" />
      <path
         d="M 847.31518,230.77806 L 849.40222,230.77806 L 849.40222,235.5305 L 849.43759,235.5305 L 852.93957,230.77806 L 855.13271,230.77806 L 851.22395,235.70383 L 855.53951,241.70671 L 853.01032,241.70671 L 849.43759,236.4166 L 849.40222,236.4166 L 849.40222,241.70671 L 847.31518,241.70671 L 847.31518,230.77806"
         style="fill:#002f62;fill-opacity:1;fill-rule:nonzero;stroke:none"
         id="path8830" />
      <path
         d="M 856.84831,230.77806 L 863.23331,230.77806 L 863.23331,232.03029 L 858.93541,232.03029 L 858.93541,235.38723 L 863.02101,235.38723 L 863.02101,236.63769 L 858.93541,236.63769 L 858.93541,240.39259 L 863.37471,240.39259 L 863.37471,241.70671 L 856.84831,241.70671 L 856.84831,230.77806"
         style="fill:#002f62;fill-opacity:1;fill-rule:nonzero;stroke:none"
         id="path8832" />
      <path
         d="M 865.24951,230.77806 L 867.51351,230.77806 L 871.74061,238.88744 L 871.77601,238.88744 L 871.77601,230.77806 L 873.47391,230.77806 L 873.47391,241.70671 L 871.40451,241.70671 L 866.96521,233.20115 L 866.94751,233.20115 L 866.94751,241.70671 L 865.24951,241.70671 L 865.24951,230.77806"
         style="fill:#002f62;fill-opacity:1;fill-rule:nonzero;stroke:none"
         id="path8834" />
      <path
         d="M 883.92681,240.86836 C 883.09551,241.35828 881.89281,241.88004 880.38941,241.88004 C 876.95821,241.88004 875.52561,239.3473 875.52561,236.14777 C 875.52561,232.93231 876.55141,230.60473 879.92961,230.60473 C 882.29961,230.60473 883.82061,231.55451 883.82061,233.64509 L 881.57441,233.64509 C 881.52141,232.99598 881.45061,231.65002 879.92961,231.65002 C 877.70101,231.65002 877.70101,234.51705 877.70101,235.97267 C 877.70101,238.60269 878.19631,240.83476 880.56631,240.83476 C 881.18531,240.83476 881.66291,240.61367 881.83971,240.39259 L 881.83971,236.5917 L 879.87651,236.5917 L 879.87651,235.27758 L 883.92681,235.27758 L 883.92681,240.86836"
         style="fill:#002f62;fill-opacity:1;fill-rule:nonzero;stroke:none"
         id="path8836" />
      <path
         d="M 888.17161,231.93478 L 888.59611,231.93478 C 889.86951,231.93478 891.10761,232.04621 891.10761,233.78835 C 891.10761,235.38723 890.06411,235.7675 888.59611,235.7675 L 888.17161,235.7675 L 888.17161,231.93478 z M 886.10221,241.70671 L 888.17161,241.70671 L 888.17161,236.92245 L 888.82601,236.92245 C 890.45321,236.92245 890.75391,237.65114 891.16061,239.64797 L 891.54981,241.70671 L 893.61911,241.70671 L 893.00011,238.80785 C 892.73481,237.54148 892.52251,236.49619 890.89531,236.19552 L 890.89531,236.16368 C 891.88581,235.91076 893.17691,235.32356 893.17691,233.62917 C 893.17691,231.14241 891.01921,230.77806 888.59611,230.77806 L 886.10221,230.77806 L 886.10221,241.70671"
         style="fill:#002f62;fill-opacity:1;fill-rule:nonzero;stroke:none"
         id="path8838" />
      <path
         d="M 903.13461,237.98542 C 903.13461,239.93273 902.72781,241.88004 899.17281,241.88004 C 895.65311,241.88004 895.24631,239.93273 895.24631,237.98542 L 895.24631,230.77806 L 897.31561,230.77806 L 897.31561,237.98542 C 897.31561,239.69573 897.58091,240.83476 899.17281,240.83476 C 900.85301,240.83476 901.06521,239.69573 901.06521,237.98542 L 901.06521,230.77806 L 903.13461,230.77806 L 903.13461,237.98542"
         style="fill:#002f62;fill-opacity:1;fill-rule:nonzero;stroke:none"
         id="path8840" />
      <path
         d="M 907.57401,231.93478 L 908.10461,231.93478 C 909.57261,231.93478 910.36851,232.26729 910.36851,233.78835 C 910.36851,235.54465 909.28961,235.79934 908.10461,235.79934 L 907.57401,235.79934 L 907.57401,231.93478 z M 905.50461,241.70671 L 907.57401,241.70671 L 907.57401,236.95605 L 908.10461,236.95605 C 909.82021,236.95605 912.43781,236.70136 912.43781,233.80427 C 912.43781,231.28567 910.63381,230.77806 908.10461,230.77806 L 905.50461,230.77806 L 905.50461,241.70671"
         style="fill:#002f62;fill-opacity:1;fill-rule:nonzero;stroke:none"
         id="path8842" />
      <path
         d="M 915.95751,231.93478 L 916.47041,231.93478 C 917.93841,231.93478 918.73431,232.26729 918.73431,233.78835 C 918.73431,235.54465 917.65541,235.79934 916.47041,235.79934 L 915.95751,235.79934 L 915.95751,231.93478 z M 913.87041,241.70671 L 915.95751,241.70671 L 915.95751,236.95605 L 916.47041,236.95605 C 918.20371,236.95605 920.82131,236.70136 920.82131,233.80427 C 920.82131,231.28567 918.99961,230.77806 916.47041,230.77806 L 913.87041,230.77806 L 913.87041,241.70671"
         style="fill:#002f62;fill-opacity:1;fill-rule:nonzero;stroke:none"
         id="path8844" />
      <path
         d="M 922.23631,230.77806 L 928.62121,230.77806 L 928.62121,232.03029 L 924.30561,232.03029 L 924.30561,235.38723 L 928.39131,235.38723 L 928.39131,236.63769 L 924.30561,236.63769 L 924.30561,240.39259 L 928.76271,240.39259 L 928.76271,241.70671 L 922.23631,241.70671 L 922.23631,230.77806"
         style="fill:#002f62;fill-opacity:1;fill-rule:nonzero;stroke:none"
         id="path8846" />
      <path
         d="M 870.62631,197.8913 C 870.62631,200.14106 868.80461,201.95749 866.55841,201.95749 C 864.31211,201.95749 862.49041,200.14106 862.49041,197.8913 C 862.49041,195.64685 864.31211,193.82158 866.55841,193.82158 C 868.80461,193.82158 870.62631,195.64685 870.62631,197.8913"
         style="fill:#002f62;fill-opacity:1;fill-rule:evenodd;stroke:none"
         id="path8848" />
      <path
         d="M 927.18861,194.66347 C 926.35731,194.66347 924.19951,194.66347 922.43081,194.66347 C 920.29071,194.66347 920.27311,194.66347 919.14111,197.41199 L 913.07451,213.24518 L 913.05691,213.24518 L 907.23791,198.2079 C 906.49511,196.40738 905.52231,194.99421 904.83251,194.7802 C 904.60261,194.70061 903.87741,194.65993 903.50601,194.65993 C 902.67471,194.65993 900.09251,194.6617 899.91561,194.66347 C 899.88021,194.66347 898.92511,194.68292 898.74831,194.71653 C 897.84621,194.86333 896.87351,196.19514 896.04221,198.19905 L 890.27631,213.23987 L 890.25861,213.23987 L 884.17441,197.40845 C 883.04241,194.65993 883.02471,194.65993 880.90231,194.65993 C 879.13371,194.65993 876.95821,194.65993 876.12691,194.65993 C 874.42901,194.65993 874.26981,195.52305 874.99491,197.41022 C 876.16231,200.47711 883.85601,219.08712 885.35941,223.08432 C 886.27911,225.50741 886.95121,225.83285 890.17021,225.83285 L 890.22331,225.83285 C 893.44221,225.83285 894.20281,225.48088 895.12251,223.05956 C 896.02451,220.67892 898.97821,214.85644 901.66661,207.71807 C 904.33731,214.85821 907.18491,220.67892 908.08691,223.05956 C 909.00661,225.48088 909.74941,225.83638 912.96841,225.83638 L 913.02151,225.83638 C 916.24051,225.83638 917.00101,225.48088 917.92071,223.05956 C 919.44181,219.06235 927.17091,200.48064 928.33821,197.41376 C 929.04571,195.52658 928.90421,194.66347 927.18861,194.66347"
         style="fill:#002f62;fill-opacity:1;fill-rule:nonzero;stroke:none"
         id="path8850" />
      <path
         d="M 871.12151,178.12104 L 861.83601,178.12635 C 855.82251,178.12635 851.50694,180.84127 851.50694,189.34683 L 851.50694,222.64923 C 851.50694,225.39421 852.47971,225.83638 856.44151,225.83638 C 860.35031,225.83638 861.35851,225.39421 861.35851,222.64923 L 861.35851,191.31537 C 861.35851,187.68958 863.10941,187.72318 866.01011,187.72318 L 871.12151,187.72318 C 873.88071,187.72318 874.32291,186.59477 874.32291,182.67185 C 874.32291,178.71001 873.88071,178.12104 871.12151,178.12104"
         style="fill:#002f62;fill-opacity:1;fill-rule:nonzero;stroke:none"
         id="path8852" />
      <path
         d="M 847.12063,223.08786 C 844.71523,220.49675 841.47855,216.06622 834.22698,207.5695 C 834.22698,207.5695 840.38197,201.78416 845.17508,197.70559 C 846.73152,196.38793 846.55465,194.64578 844.29074,194.64578 C 843.19417,194.64578 840.77108,194.64578 838.41874,194.64578 C 835.58886,194.64578 835.35893,195.51067 833.96168,196.54711 L 826.86929,202.71979 L 826.90466,181.31527 C 826.90466,178.56852 825.94957,178.12635 821.98774,178.12635 C 818.06128,178.12635 817.05313,178.56852 817.05313,181.31527 L 817.05313,222.64923 C 817.05313,225.39421 818.00822,225.83638 821.98774,225.83638 C 825.89651,225.83638 826.90466,225.39421 826.90466,222.64923 L 826.88697,212.70573 L 835.04057,223.0914 C 837.12761,225.83638 837.37522,225.83638 839.51532,225.83638 C 841.284,225.83638 844.43224,225.83638 845.26352,225.83638 C 847.19137,225.83638 848.87162,224.98388 847.12063,223.08786"
         style="fill:#002f62;fill-opacity:1;fill-rule:nonzero;stroke:none"
         id="path8854" />
    </g>
  </g>
</svg>
