<svg xmlns="http://www.w3.org/2000/svg" viewBox="0 0 406 250"><g fill="none" stroke="#8db2db" stroke-width="2"><path d="M195.75 18.77a.27.27 0 0 0-.27-.27H32.52a.27.27 0 0 0-.27.27v162.52a.27.27 0 0 0 .27.27h162.96a.27.27 0 0 0 .27-.27V18.77M277.75 18.78a.27.27 0 0 0-.27-.27h-77.46a.27.27 0 0 0-.27.27v78.7a.27.27 0 0 0 .27.27h77.46a.27.27 0 0 0 .27-.27v-78.7M361.75 18.78a.27.27 0 0 0-.27-.27h-78.7a.27.27 0 0 0-.27.27v78.7a.27.27 0 0 0 .27.27h78.7a.27.27 0 0 0 .27-.27v-78.7M277.73 103.18a.59.59 0 0 0-.59-.59h-76.8a.59.59 0 0 0-.59.59v77.98a.59.59 0 0 0 .59.59h76.8a.59.59 0 0 0 .59-.59v-77.98M361.829 102.84a.27.27 0 0 0-.27-.271l-78.72-.138a.27.27 0 0 0-.27.27l-.137 78.62a.27.27 0 0 0 .269.27l78.72.138a.27.27 0 0 0 .27-.27l.138-78.62M167.935 202.276a.87.87 0 0 0-.92-.816l-.758.045a.87.87 0 0 0-.817.92l.045.758a.87.87 0 0 0 .92.817l.758-.045a.87.87 0 0 0 .817-.92l-.045-.758M178.47 202.464a.89.89 0 0 0-.836-.941l-.699-.041a.89.89 0 0 0-.94.835l-.045.739a.89.89 0 0 0 .836.941l.699.041a.89.89 0 0 0 .94-.835l.045-.739M215.013 202.142a.63.63 0 0 0-.63-.631l-.76-.002a.63.63 0 0 0-.63.63l-.026 14.4a.63.63 0 0 0 .63.63l.76.002a.63.63 0 0 0 .63-.63l.026-14.4M254.5 202.778a.78.78 0 0 0-.78-.779l-.7.002a.78.78 0 0 0-.78.781l.02 10.4a.78.78 0 0 0 .78.779l.7-.002a.78.78 0 0 0 .78-.781l-.02-10.4M89 210.41q-.98-3.58-2.07-7.13-.15-.5-.67-.51l-1.35-.03q-.66-.01-.45.61l3.27 9.52a1.9 1.89 42.6 0 0 3.63-.15q1.21-4.8 3.21-9.28a.44.43 14.2 0 0-.37-.61l-1.09-.09q-.6-.04-.79.53l-2.33 7.17a.52.52 0 0 1-.99-.03M142.09 209.94c5.94.61 7.2-8.17-2.26-7.1q-.58.06-.58.64v9.32q0 .36.23.64.68.86 1.58.45.44-.21.44-.7v-2.72q0-.59.59-.53M229.75 211.8l.39 1.56q.15.58.74.55l1.22-.06q.78-.04.51-.77l-3.3-9.23a1.87 1.87 0 0 0-3.53.01l-3.31 9.32a.61.61 0 0 0 .61.81l1.12-.06q.37-.02.46-.38l.45-1.73a.77.75 6.7 0 1 .74-.57h3.2q.57 0 .7.55M276.32 210.72l-3.66-7.43a1.67 1.67 0 0 0-3.16.74v9.34a.63.62-2.9 0 0 .69.62l.73-.08q.69-.07.66-.76l-.31-7.33q-.05-1.02.43-.12l4.11 7.71a1.6 1.6 0 0 0 3.01-.8q-.14-4.7-.04-9.28.01-.69-.67-.6l-.86.12q-.5.07-.5.57l-.01 7.2a.22.22 0 0 1-.42.1M131.8 204.87l-.14-1.07a.99.99 0 0 0-1.97.19q.06.95-.62 1.38-.44.27-.54.78-.19.93.66 1.32a.98.96-77.6 0 1 .55.88q.02 1.96.01 3.94a1.25 1.23 21.9 0 0 .41.94q1.73 1.56 3.81.04.63-.46-.07-.8l-1.8-.86q-.35-.16-.35-.56v-2.98q0-.61.6-.73l.89-.18q.41-.08.54-.46l.11-.3a.65.64-78.3 0 0-.56-.86l-.89-.07a.7.7 0 0 1-.64-.6M173.11 207.29l.8-.06q.59-.05.59-.64v-.46q0-.63-.62-.63h-.84a.59.59 0 0 1-.57-.45l-.3-1.15a.8.8 0 0 0-1.56.05q-.25 1.25-1.5 1.9-.65.34-.08.8l1.08.89q.39.31.39.81v4.05a1.2 1.2 0 0 0 .57 1.02q1.36.83 2.93.35a.99.85-55.3 0 0-.2-1.83q-.49.1-.79-.21-.51-.54-.51-.73v-3.05a.66.66 0 0 1 .61-.66M124.92 208.35q.33 1.95-.04 4.63a.7.7 0 0 0 .58.78l1.18.18a.54.53-85.4 0 0 .61-.53v-5.78a2.21 2.21 0 0 0-2.69-2.16l-1.86.41q-.35.08-.69-.02l-1.67-.46q-.4-.12-.39.3l.08 7.53q0 .63.63.7l.92.09q.66.07.66-.6l.02-4.85a1.34 1.34 0 0 1 2.66-.22M178.244 206.258a.99.99 0 0 0-.992-.988h-.26a.99.99 0 0 0-.988.992l.012 6.74a.99.99 0 0 0 .992.988h.26a.99.99 0 0 0 .988-.992l-.012-6.74M195.25 208.25v4.87q0 .66.65.76l.8.12q.78.12.79-.67c.03-2.34 1.15-8.61-3.15-7.83-.84.15-2.04 1.46-2.65 0a.75.74-56.4 0 0-1.43.29l-.01 7.32q0 .61.59.73l.96.18a.58.58 0 0 0 .69-.57l.02-4.89a1.46 1.3-48.2 0 1 2.74-.31M235.69 206.11l-1.08-.74q-.86-.58-.86.46v10.81a.63.63 0 0 0 .72.62l1.09-.16q.6-.1.53-.7l-.33-2.73q-.08-.7.56-.39l1.12.56q.47.23.97.14c4.84-.87 3.48-11.48-2.16-7.86q-.28.18-.56-.01M244.9 206.07l-.79-.61a.76.76 0 0 0-1.22.59l-.12 9.95a1.36.95 61.2 0 0 2.09 1.04q.31-1.51.09-3.02-.11-.8.66-.57l1.72.53q.42.13.8-.11c4.4-2.73 2.28-10.78-2.49-7.77a.65.65 0 0 1-.74-.03M259.63 210.16l-1.27-4.15q-.21-.69-.93-.64l-.89.06q-.81.06-.55.83c.82 2.36 3.71 7.82 1.97 9.93a.56.56 0 0 0 .37.91l1.11.15q.67.08.89-.56l3.52-10.38q.16-.46-.29-.66c-2.35-1.01-2.55 3.19-3.17 4.56a.41.41 0 0 1-.76-.05M298.77 210.53l-1.18-4.34a1.22 1.22 0 0 0-2.37.05l-.99 4.25a.36.36 0 0 1-.7-.02c-.18-1.13-.82-6.09-2.9-5.05a.69.69 0 0 0-.36.78c.54 2.08 1.12 8.32 4.17 7.82q.62-.11.76-.73l.8-3.53a.38.38 0 0 1 .74-.01l.81 3.22a1.61 1.61 0 0 0 3.11.03l1.88-6.88a.69.69 0 0 0-.7-.87l-.65.03a.78.77 5.6 0 0-.71.58l-1.11 4.66a.31.31 0 0 1-.6.01M100.77 205.61c-1.11-.21-5.34-.57-5 1.64a.69.69 0 0 0 1.05.48q1.61-1 3.11.03a.57.57 0 0 1-.43 1.03q-1.94-.39-3.42.78a2.31 2.3-33.9 0 0-.58 2.96c1.5 2.6 3.87.48 6.02 1.44a.54.54 0 0 0 .76-.5l-.09-6.16a1.77 1.76 5.3 0 0-1.42-1.7M109.19 211.5c-2.61 2.22-3.4-1.71-2.69-3.48a1.28 1.27 29.5 0 1 1.95-.54q.75.57 1.12.35a1.2 1.2 0 0 0-.32-2.22c-2.35-.53-4.14-.08-5.11 2.26-2.09 5.03 4.71 8.63 6.1 4.34a.66.66 0 0 0-1.05-.71M116.46 205.62c-1.24-.26-5.22-.61-4.94 1.65a.55.55 0 0 0 .72.46c.65-.2 3.79-1.03 3.5.55a.65.64 8.9 0 1-.72.52q-3.54-.47-4.08 2.76-.07.47.19.87 1.37 2.07 3.73 1.36a2.74 2.62-49.5 0 1 .97-.1l1.79.16q.51.04.49-.46l-.23-6.09a1.78 1.78 0 0 0-1.42-1.68M156.53 209.66a4.33 4.33 0 0 0-4.33-4.33 4.33 4.33 0 0 0-4.33 4.33 4.33 4.33 0 0 0 4.33 4.33 4.33 4.33 0 0 0 4.33-4.33M160.2 207.48q1.24-.48 2.35.33a.57.57 0 0 0 .9-.36c.49-2.76-4.03-2.26-5.16-.97a2.1 2.1 0 0 0 .74 3.32l2.44 1.06a.41.41 0 0 1 .04.73q-1.55.88-3.03-.1-.36-.24-.63.09-.78.91.32 1.79c3.59 2.86 9.44-3.24 2.1-4.97a.49.48 40.9 0 1-.07-.92M167.682 206.089a.62.62 0 0 0-.626-.614l-.98.01a.62.62 0 0 0-.614.627l.076 7.22a.62.62 0 0 0 .626.613l.98-.01a.62.62 0 0 0 .614-.627l-.076-7.22M188.69 209.67a4.33 4.33 0 0 0-4.33-4.33 4.33 4.33 0 0 0-4.33 4.33 4.33 4.33 0 0 0 4.33 4.33 4.33 4.33 0 0 0 4.33-4.33M202.81 211.86q-1.61.28-3.12-.36-.88-.38-.67.56c.68 2.95 6.18 2.37 6.32-1.12a1.16 1.15-74.9 0 0-.61-1.07l-3.45-1.87a.13.13 0 0 1-.06-.17q.06-.17.11-.32a.43.42-74.8 0 1 .49-.29l1.98.43a.93.93 0 0 0 .58-1.76q-2.1-.96-3.99.04a2.12 2.12 0 0 0-.01 3.75l2.56 1.37a.43.43 0 0 1-.13.81M289.25 209.66a4.34 4.34 0 0 0-4.34-4.34 4.34 4.34 0 0 0-4.34 4.34 4.34 4.34 0 0 0 4.34 4.34 4.34 4.34 0 0 0 4.34-4.34" vector-effect="non-scaling-stroke"/><path d="M157.57 93.56a43.68 43.68 0 0 0-43.68-43.68 43.68 43.68 0 0 0-43.68 43.68 43.68 43.68 0 0 0 43.68 43.68 43.68 43.68 0 0 0 43.68-43.68M160.27 68.73c-1.1-7.52-5.95-12.49-13.24-14.52q-.36-.1-.14.2 5.64 8.04 12.97 14.53a.25.24 17 0 0 .41-.21M80.26 54.7c-7.09 2-11.94 6.97-12.98 14.36q-.06.45.31.18c5.94-4.38 8.51-9.26 12.82-14.3q.32-.37-.15-.24" vector-effect="non-scaling-stroke"/><path d="M164.2 76.03c-3.22-5.52-8.37-7.11-11.9-11.74q-.76-.99-.44.22c2.06 7.61 9.13 10.78 14.25 16.55q.29.32.26-.11c-.75-9.42 1.97-16.28-7.65-21.4a.29.28 80.4 0 0-.32.46c3.39 3.26 4.64 11.32 6.05 15.9q.36 1.17-.25.12M63.36 76.18c1.23-4.57 2.16-11.91 5.38-15.39a.28.28 0 0 0-.34-.43c-9.03 5.08-6.99 12.83-7.09 21.38q0 .69.43.15c5-6.34 10.98-8.59 13.89-16.56a.39.39 0 0 0-.69-.35c-3.15 4.64-8.09 6.21-11.36 11.29q-.43.67-.22-.09" vector-effect="non-scaling-stroke"/><path d="M167.74 89c-.37-5.78-6.25-9.68-9.93-13.57q-.37-.39-.26.14c1.55 7.79 8.19 13.68 11.03 20.36q.06.12.08 0c1.03-4.53 3.24-9.33 3.55-13.28q.64-8.17-4.63-14.79-.58-.74-.28.15c1.87 5.47 1 10.67.71 16.31-.07 1.31.59 3.18.13 4.73q-.33 1.1-.4-.05M59.6 90.22q.57-7.28-.34-14.5-.4-3.11.45-6a.26.26 0 0 0-.46-.22c-6.41 9.56-3.37 17.09.28 26.83q.21.56.37-.01 1.24-4.27 2.34-5.55 5.42-6.36 8-14.17a.27.27 0 0 0-.44-.28q-3.89 3.64-7.41 7.66c-1.64 1.87-1.78 4-2.45 6.3a.17.17 0 0 1-.34-.06" vector-effect="non-scaling-stroke"/><path d="M167.35 106.21c1.36-7.58-1.68-11.49-4.8-16.6q-2.06-3.37-1.38.52 1.38 7.82 3.82 15.02c.76 2.25.47 4.33.51 6.64q0 .57.35.11c6.81-8.98 11.68-14.97 8.58-26.83q-.44-1.68-.56.05c-.53 7.3-4.73 12.87-5.91 20.93-.03.17-.19.37-.33.41q-.34.09-.28-.25M60.16 106.99c-1.35-7.64-5.49-13.78-6.25-21.28q-.11-1.09-.38-.03-1.92 7.65.52 14.88c1.49 4.41 5.3 8.33 8.2 12.33q.51.71.45-.16c-.13-1.97-.43-3.86.16-5.77q2.54-8.3 4.03-17.75.3-1.92-.75-.29c-4.01 6.22-6.01 10.09-5.61 18.03a.19.19 0 0 1-.37.04" vector-effect="non-scaling-stroke"/><path d="M161.35 120.64c3.23-6.81 1.62-11.9.5-18.96q-.15-.89-.44-.03c-2.73 8.17-1.23 16.53-4.71 24.56q-.2.46.24.21c9.88-5.59 18.83-11.91 18.5-24.2q-.03-1.15-.37-.05-1.51 4.79-3.21 6.43-5.78 5.56-10.26 12.18a.14.14 0 0 1-.25-.14M66.28 121.39q-1.16-1.72-2.32-3.42c-3.88-5.71-9.33-8.36-10.9-14.93q-.39-1.64-.45.04c-.43 13.09 9.28 18.07 18.43 24.2q.83.55.46-.38c-3.13-8.01-3.03-16.49-4.71-24.87a.36.36 0 0 0-.72.05c-.36 7.39-2.92 11.93.55 19.09a.21.2-76.4 0 1-.34.22" vector-effect="non-scaling-stroke"/><path d="M150.27 132.93c5.66-5.82 5.42-11.72 7.09-19.24q.1-.47-.22-.1c-6.15 6.95-6.01 15.81-11.88 22.61q-.42.49.22.4c12.16-1.81 21.15-5.33 25.83-17.5a.26.26 0 0 0-.46-.25c-1.7 2.4-3.56 4.51-6.32 5.93q-7.3 3.75-14.06 8.38-1.24.84-.2-.23M78 134.17q-6.83-5.21-14.73-8.66-2.94-1.29-6.27-6.15-.82-1.18-.32.17 4.82 13.07 18.6 16.03 3.66.78 7.28 1.52.52.1.2-.32c-5.04-6.75-5.63-15.31-11.8-22.42q-.44-.51-.29.14c1.76 7.31 1.51 13.65 7.24 18.83q.26.24.36.69.09.44-.27.17" vector-effect="non-scaling-stroke"/><path d="M137.03 139.47c.01-.25.27-.42.52-.47 6.17-1.32 8.77-7.01 11-12.54q.35-.88-.35-.25c-5.97 5.3-10.56 11.39-18.5 13.61q-.57.15 0 .3c12.45 3.2 23.58 5.94 31.77-5.9q.34-.49-.15-.15c-7.18 5.06-16.24 4.18-24.08 5.59q-.23.04-.21-.19M91.23 140.04c-7.65-1.27-17.36-.53-23.69-4.99a.29.29 0 0 0-.39.41c8.45 10.97 19.35 8.23 31.41 4.89q.66-.19 0-.37c-8.23-2.21-12.47-8.13-18.73-13.31a.17.17 0 0 0-.26.2c2.72 6.78 4.74 10.12 11.73 12.92q1.12.45-.07.25" vector-effect="non-scaling-stroke"/><path d="M117.69 141.91c4.71-.98 10.25 4.29 13.37 5.7q11.45 5.17 20.16-3.04.93-.87-.24-.36c-11.49 5.08-16.2-2.46-26.76-3.79-4.24-.54-8.08.86-12.11.22-13.52-2.14-22.52 9.9-35.17 3.77q-.88-.43-.18.25 7.88 7.56 18.02 4.41c5.63-1.74 9.82-7.63 15.83-7.34a.45.45 0 0 1 .18.86q-6.88 3.46-12.39 8.84-.47.47.04.88l1.71 1.38a.46.46 0 0 0 .65-.08q5.2-6.44 12.44-10.4a2.08 2.07-44.1 0 1 2.04.03q7.05 4.13 12.44 10.28.38.43.79.03l1.66-1.6a.45.45 0 0 0 0-.66q-5.69-5.26-12.56-8.79-.79-.41.08-.59M231.04 77.52c-4.42-3.12-5.55-9.57-5.54-14.78q.05-15.33-.03-30.72a.52.52 0 0 0-.52-.52h-5.68q-.49 0-.5.49-.07 13.16 0 26.28c.09 15.94 2.62 28.22 22.15 26.49 11.42-1.02 16.63-10.67 16.63-21.27q-.01-15.74-.08-31.5 0-.49-.49-.49h-5.71q-.52 0-.52.52.05 16.08-.15 32.17-.09 6.94-2.87 10.81c-3.66 5.09-11.71 6.02-16.69 2.52M308.82 40.71c7.69 14.97 17.17 29.14 26.08 43.43q.22.36.65.36h5.95q.5 0 .5-.5V32.25q0-.5-.5-.5h-5.31q-.56 0-.56.56l.41 42.69q0 .37-.16.04c-7.3-14.84-16.85-28.94-25.8-42.85a.98.98 0 0 0-.82-.44h-6q-.98 0-.98.99l.05 51.38q0 .48.48.47l5.37-.13q.63-.01.63-.64l-.19-43.07q0-.43.2-.04M141.36 62.52q-11.03-9.6-25.73-10.38a.71.71 0 0 0-.74.76l.39 4.69a.92.91.4 0 0 .83.84q7.1.67 13.42 3.93.51.26 1.05.08l.79-.26q.49-.15.97 0 3.77 1.18 5.39 4.69.24.52.64.1l3.05-3.22a.86.85-48 0 0-.06-1.23M87.06 64.94l2.7 2.7q.41.4.83.02 9.01-8.19 21.22-9.17.57-.05.55-.62l-.16-5.14q-.02-.61-.62-.56-14.76 1.15-25.72 10.91-.37.33-.11.75.2.32.49.51a1.41.08 33.1 0 1 .82.6" vector-effect="non-scaling-stroke"/><path d="m92.04 69.98 3.87 3.77a.42.42 0 0 0 .57.01q6.6-5.81 15.43-6.56.58-.05.56-.63l-.11-5.07q-.01-.47-.48-.43-11.31.92-19.82 8.32-.33.28-.02.59M128.47 68.92l1.52 1.75a.38.38 0 0 0 .67-.25c-.01-7.78-9.25-8.97-15.14-9.39q-.52-.04-.52.49v5.15q0 .5.5.54 6.76.45 12.45 4.02.45.28.34-.23l-.39-1.79a.33.33 0 0 1 .57-.29M139.26 69.84q9.22 8.95 9.66 22.03.02.51.53.5l5.51-.17q.5-.01.47-.51-1-15.21-11.17-26.5a.54.54 0 0 0-.8 0l-4.21 4.52a.09.09 0 0 0 .01.13M86.76 67.99q-1.22-1.49-2.72-2.43-.43-.27-.76.11-9.85 11.23-10.67 26.32-.03.51.48.51h5.36q.64 0 .68-.64.76-12.45 8.9-21.76.37-.41.06-.87t-.76-.74q-.33-.2-.57-.5M129.46 75.13q-6.16-4.72-13.91-5.56-.53-.06-.53.47v5.14q0 .47.46.52 5.5.59 9.88 3.91.32.25.6-.05l3.55-3.69a.5.49-49.7 0 0-.05-.74" vector-effect="non-scaling-stroke"/><path d="M101.24 79.11q.32.47.81.62.52.16.93-.19 3.93-3.34 9.09-3.84.43-.04.43-.47v-4.96a.64.63-3.2 0 0-.71-.63q-7.58.9-13.5 5.7a.5.5 0 0 0-.05.72q1.24 1.38 2.65 2.65a2.27 2.17 5.1 0 1 .35.4M137.13 78.58l.73 2.4q.16.52.5.94l.87 1.08q.33.4.05.83-1.23 1.96.24 2.7.4.21.45.65l.56 4.7q.06.53.6.51l5.12-.19q.45-.02.42-.46-.41-5.36-2.44-10.35-.18-.44-.64-.56l-1.01-.26a1.22 1.22 0 0 1-.73-.53q-1.52-2.38-4.22-3.33-.56-.2-.77-.76-.42-1.11-1.59-1.22a.89.89 0 0 1-.78-.72q-.28-1.53-.73-2.92a.94.93-23.8 0 0-1.36-.52c-2.09 1.19 1.59 5.72 3.09 7.83a.63.61 63 0 0 .7.24l.66-.21q.21-.06.28.15M87.58 92.33q.53-9.26 6.58-16.26.36-.42-.03-.81l-3.63-3.64q-.4-.39-.76.03-7.4 8.71-8.31 20.2-.05.66.61.65l5.37-.01a.17.17 0 0 0 .17-.16" vector-effect="non-scaling-stroke"/><path d="m100.12 81.14-3.58-3.43q-.37-.35-.68.04-5.07 6.16-5.89 14.11a.58.57-86.9 0 0 .57.64h1.17q.61 0 .53-.61c-.6-4.17 5.16-7.26 7.85-9.57a.8.79 46.6 0 0 .03-1.18M136.67 89.02c1.72-3.15-.06-3.98-2.13-5.68q-.41-.34-.34-.87.38-3.04-2.43-4.68-.49-.29-.89.13l-3.61 3.85q-1.49 1.6.63 1.07 4.11-1.04 5.05 2.79.12.5.57.24c2.28-1.37 3.33 1.34 2.15 3.14q-.08.11.05.15.14.04.29.1.43.16.66-.24M106.12 84.35l2.72.41q.68.11.81-.57l.24-1.24q.14-.73.83-.43l1.16.5a.45.45 0 0 0 .62-.41v-3.87q0-.52-.51-.44-4.6.64-8.1 3.66-.44.38.08.65 1.23.65 1.46 2.1.02.13.12.03l.31-.31a.29.29 0 0 1 .26-.08M119.5 82.62q-.35 1.77-2.21 2.22-.34.08-.03.24l2.16 1.09q.53.27.81-.26.76-1.44 2.35-1.91a.6.59 68.2 0 0 .36-.85q-.43-.79.32-1.37a.45.44 41.5 0 0-.05-.74q-3.56-2.11-7.64-2.83-.55-.09-.51.47l.27 3.74a.59.59 0 0 0 .84.5l2.32-1.09a.72.72 0 0 1 1.01.79M113.31 87.32q.37-.68-.25-1.14-.69-.51-.58.34l.18 1.45q.07.56-.45.75c-2.26.82-5.5 3.26-3.17 5.69q.35.36.19.85-.4 1.16-1.33 1.96a.21.21 0 0 0 .24.35q1.45-.78 1.97-2.35.2-.59.82-.52l2.02.21a.46.45 3 0 1 .4.44q.1 3.45-2.81 4.16a.36.36 0 0 0 .01.7l3.64.83a.81.81 0 0 0 .97-.56q.22-.72.42-1.48.12-.47.55-.69.43-.24.96.16a1.02 1.02 0 0 0 1.63-.76q.13-2.59-1.39-4.76a.73.72-44.7 0 1 .01-.86l.29-.39a.61.61 0 0 0 .04-.67q-1.37-2.36-3.96-2.85a.59.58-70.2 0 1-.4-.86M138.5 88.91q.92-.4-.23-1.1-.39-.23-.32.22l.08.61q.06.45.47.27M137.45 92.42a.53.53 0 0 0 .62-.6l-.24-1.61q-.1-.7-.6-.2L136 91.24a.57.57 0 0 0 .3.97l1.15.21M94.12 98.68q-.29-3 1.98-2.89a.46.46 0 0 0 .49-.49l-.13-3a.66.66 0 0 0-.66-.63h-1.26a.57.57 0 0 0-.43.94c2.41 2.71-5.15 3.33-.99 7.88q.33.36.39.85.47 3.93 1.77 7.63.2.55-.3.88-.47.32-.37.73.13.52.5.14l4.79-4.92q.35-.37.04-.77-2.65-3.39-3.63-7.57a.26.25 84.5 0 0-.25-.21h-.33q-.51.01-.47.52.06.84-.65 1.18-.45.22-.49-.27M105.64 93.2a1 1 0 0 0-1 .53l-.53 1.04q-.26.51.3.53 1.34.05 2.57-.39.54-.19.26-.69-.49-.88-1.6-1.02M135.1 95.37q.52 1.8 2.25 2.8.34.19.39-.2l.34-2.62q.07-.55-.49-.59-1.05-.06-2.11.04-.53.06-.38.57M76.6 108.72q-1.87-2.44-.87-5.26.15-.41.57-.51l3.2-.72q.38-.09.34-.47l-.75-6.29q-.06-.51-.57-.51l-5.26.06q-.62 0-.59.63.86 14.84 10.63 25.88a.64.63-44.1 0 0 .94.01l3.62-3.79q.45-.48-.04-.92l-3.33-3.06q-.42-.39-.98-.53-1.06-.27-1.48-1.32-.23-.58-.8-.85L77 109.05q-.24-.12-.4-.33M82.17 94.99q-.94-.01-.78.92l1.24 7.01a.4.39-52.1 0 0 .78-.1q-.27-4.19 3.72-5.8a1.04 1.04 0 0 0-.39-2.01l-4.57-.02M90.35 94.62q-.74 1.9.13 3.65.04.08.08.01.86-1.74.47-3.6-.25-1.15-.68-.06M140.48 100.26l-.55.26a1.01 1-4.3 0 0-.53.61q-1.7 5.47-5.38 9.84a.63.63 0 0 0 .05.86q1.06 1.02 2.41.4a.53.52-21.4 0 1 .72.31l.74 2.34a.46.45 56.3 0 0 .78.16q7.13-8.61 7.98-19.8.03-.49-.45-.49h-4.99q-.51 0-.65.49-.68 2.26.14 4.34.18.46-.27.68" vector-effect="non-scaling-stroke"/><path d="m140.25 117.7 3.86 3.75q.32.32.62-.02 9.79-11.25 10.72-26.19.03-.49-.46-.49h-5.47q-.45 0-.48.45-.91 12.26-8.84 21.55a.7.69 42.5 0 0 .05.95M103.02 99.76a.44.44 0 0 1-.86.07q-.58-1.78-2.48-2.1a.43.42-8.9 0 0-.45.61l2.39 4.78a.58.58 0 0 0 .89.19q1.89-1.61.82-3.83-.14-.28-.25.01-.04.11-.06.27M124.5 102.18q-.1-1.18-1.23-1.1-.7.05-.23.57.4.45.87.84.67.56.59-.31M131.41 108.06l1.04.65q.5.32.78-.2l3.77-7.11a.5.49 9.3 0 0-.52-.72l-4.71.8q-.38.06-.63.35-1.23 1.43-.17 2.55.34.37.2.85l-.84 2.9a1.86 1.85 13.8 0 1-2.16 1.3l-4.68-.99q-1.26-.26-.18.43 2.97 1.91 6.42 1.4a.86.85 2 0 0 .7-.65l.31-1.29q.14-.61.67-.27M111.68 103.51l-3.62-1.96q-.45-.24-.79.14l-3.02 3.27q-.41.44.08.8 3.03 2.2 6.65 3.05.76.17.77-.61 0-.24.03-.44.09-.55.58-.82.88-.5.66-1.61-.24-1.23-1.34-1.82" vector-effect="non-scaling-stroke"/><path d="M117.1 107.5q-.29-.49-.81-.52-.47-.03-.83.29l-2.64 2.32a.31.31 0 0 0-.09.34q.04.13.08.25a.29.28 62.2 0 0 .44.14q2.41-1.8 4.46.19.42.4.92.12c1.49-.82 4.46-2.26 4.36-3.62q-.03-.36-.38-.27l-4.44 1.19q-.7.19-1.07-.43M108.99 111.55l-7.07-3.94a.48.46 35.9 0 0-.55.08l-3.19 3.28q-.44.46.05.86 4.72 3.88 10.72 5.26.86.19.17-.36-2.98-2.35-.12-5.11a.05.04 37.8 0 0-.01-.07M131.42 115.03l1.78 1.22a.6.6 0 0 1 .05.95q-1.18 1.02-1.01 2.52.1.82.75.32l2.44-1.86a.64.63 57.6 0 0 .17-.79c-.15-.27-4.57-7.1-4.61-3.19a1.02 1-72.8 0 0 .43.83M98.56 116.01c-.47 1.51-5.23 1.87-6.38 1.73q-.38-.05-.09.19 8.69 7.19 19.94 8.25.47.04.47-.43v-5q0-.49-.49-.52-7.07-.43-12.84-4.43-.44-.31-.61.21M140.27 120.96q-.78-.95-1.7-1.7-.46-.37-.9.01-2.19 1.9-4.57 3.58c-2.89 2.04-4.07 4.93-7.57 6.71q-.44.22-.85-.05l-2.23-1.53a1.13 1.09-31 0 0-.78-.18l-5.95.85q-.56.08-.56.64l.02 5.27q0 .41.41.39 15.29-.92 26.66-11.06.41-.37.1-.84-.58-.85-1.35-1.41-.41-.29-.73-.68" vector-effect="non-scaling-stroke"/><path d="M111.86 128.54q-12.18-.87-21.26-8.88a.82.82 0 0 0-1.1.02l-3.8 3.61q-.43.41.03.79 11.3 9.68 26.18 10.91.58.05.59-.54l.01-5.21q0-.65-.65-.7M119.46 125.04q-2.61-.74-1.52-3.24.31-.69-.45-.73l-1.83-.09q-.65-.04-.62.61l.19 4.03q.03.6.62.53l3.4-.41a.41.33-34.5 0 0 .21-.7M123.11 56.35q-3.66-1.77-7.04.75-.67.5.15.63 3.48.56 6.83-.54a.45.45 0 0 0 .06-.84M133.66 61.59q.42.97 1.52 1.3a.53.52-1.1 0 0 .65-.67q-.42-1.25-1.76-1.27-.69 0-.41.64M261.39 137.41c-1.41-22.9-25.12-23.73-42.63-21.26q-.51.07-.51.59v50.99q0 .45.45.47 14 .81 17.92.25 26.46-3.79 24.77-31.04M315.03 147.28c8.28.95 18.32-.29 22.82-7.86 3.95-6.64 3.14-15.85-3.43-20.61-6.54-4.74-18.49-4.03-26.13-2.45q-.46.1-.47.56l-.26 50.86q0 .47.47.47H314q.5 0 .5-.5v-19.99q0-.54.53-.48" vector-effect="non-scaling-stroke"/><path d="M225 121.86v39.88a1.35 1.35 0 0 0 1.35 1.35h8.54a19.35 18.74 0 0 0 19.35-18.74v-5.1a19.35 18.74 0 0 0-19.35-18.74h-8.54a1.35 1.35 0 0 0-1.35 1.35M314.45 122.46l-.04 18.52a1.49 1.49 0 0 0 1.49 1.5l6.45.01a10.9 10.1.1 0 0 10.92-10.08v-1.3a10.9 10.1.1 0 0-10.88-10.12l-6.45-.01a1.49 1.49 0 0 0-1.49 1.48M141.5 205.38v1.96a.65.65 0 0 0 .64.66h.5a1.85 1.45.2 0 0 1.86-1.44v-.36a1.85 1.45.2 0 0-1.84-1.46h-.5a.65.65 0 0 0-.66.64M226.14 208.79a.39.39 0 0 0 .39.49l1.86-.06a.39.39 0 0 0 .36-.52l-1.03-2.95a.39.39 0 0 0-.75.02l-.83 3.02M237.267 211.883a2.25 1.66 94.4 0 0 1.828-2.116 2.25 1.66 94.4 0 0-1.482-2.37 2.25 1.66 94.4 0 0-1.828 2.116 2.25 1.66 94.4 0 0 1.482 2.37M246.598 211.92a2.27 1.68 90.8 0 0 1.712-2.246 2.27 1.68 90.8 0 0-1.648-2.294 2.27 1.68 90.8 0 0-1.712 2.246 2.27 1.68 90.8 0 0 1.648 2.294M100.088 210.45a1.39.85-24.2 0 0-1.616-.205 1.39.85-24.2 0 0-.92 1.345 1.39.85-24.2 0 0 1.616.205 1.39.85-24.2 0 0 .92-1.345M115.62 210.24q-1.08-.39-1.97.28a.93.84-78.2 0 0 .89 1.53l1.2-.86a.55.54-52.6 0 0-.12-.95M152.072 212.005a2.35 2.03 93.6 0 0 2.174-2.218 2.35 2.03 93.6 0 0-1.878-2.472 2.35 2.03 93.6 0 0-2.174 2.218 2.35 2.03 93.6 0 0 1.878 2.472M184.252 212.025a2.36 2.07 93.6 0 0 2.214-2.225 2.36 2.07 93.6 0 0-1.918-2.485 2.36 2.07 93.6 0 0-2.214 2.225 2.36 2.07 93.6 0 0 1.918 2.485M284.694 211.998a2.34 2.08 92.6 0 0 2.184-2.244 2.34 2.08 92.6 0 0-1.972-2.432 2.34 2.08 92.6 0 0-2.184 2.244 2.34 2.08 92.6 0 0 1.972 2.432" vector-effect="non-scaling-stroke"/></g><path fill="#fff" d="M0 0h406v250H0V0Zm195.75 18.77a.27.27 0 0 0-.27-.27H32.52a.27.27 0 0 0-.27.27v162.52a.27.27 0 0 0 .27.27h162.96a.27.27 0 0 0 .27-.27V18.77Zm82 .01a.27.27 0 0 0-.27-.27h-77.46a.27.27 0 0 0-.27.27v78.7a.27.27 0 0 0 .27.27h77.46a.27.27 0 0 0 .27-.27v-78.7Zm84 0a.27.27 0 0 0-.27-.27h-78.7a.27.27 0 0 0-.27.27v78.7a.27.27 0 0 0 .27.27h78.7a.27.27 0 0 0 .27-.27v-78.7Zm-84.02 84.4a.59.59 0 0 0-.59-.59h-76.8a.59.59 0 0 0-.59.59v77.98a.59.59 0 0 0 .59.59h76.8a.59.59 0 0 0 .59-.59v-77.98Zm84.099-.34a.27.27 0 0 0-.27-.271l-78.72-.138a.27.27 0 0 0-.27.27l-.137 78.62a.27.27 0 0 0 .269.27l78.72.138a.27.27 0 0 0 .27-.27l.138-78.62Zm-193.894 99.436a.87.87 0 0 0-.92-.816l-.758.045a.87.87 0 0 0-.817.92l.045.758a.87.87 0 0 0 .92.817l.758-.045a.87.87 0 0 0 .817-.92l-.045-.758Zm10.535.188a.89.89 0 0 0-.836-.941l-.699-.041a.89.89 0 0 0-.94.835l-.045.739a.89.89 0 0 0 .836.941l.699.041a.89.89 0 0 0 .94-.835l.045-.739Zm36.543-.322a.63.63 0 0 0-.63-.631l-.76-.002a.63.63 0 0 0-.63.63l-.026 14.4a.63.63 0 0 0 .63.63l.76.002a.63.63 0 0 0 .63-.63l.026-14.4Zm39.488.636a.78.78 0 0 0-.781-.779l-.7.002a.78.78 0 0 0-.78.781l.02 10.4a.78.78 0 0 0 .78.779l.7-.002a.78.78 0 0 0 .78-.781l-.02-10.4ZM89 210.41q-.98-3.58-2.07-7.13-.15-.5-.67-.51l-1.35-.03q-.66-.01-.45.61l3.27 9.52a1.9 1.89 42.6 0 0 3.63-.15q1.21-4.8 3.21-9.28a.44.43 14.2 0 0-.37-.61l-1.09-.09q-.6-.04-.79.53l-2.33 7.17a.52.52 0 0 1-.99-.03Zm53.09-.47c5.94.61 7.2-8.17-2.26-7.1q-.58.06-.58.64v9.32q0 .36.23.64.68.86 1.58.45.44-.21.44-.7v-2.72q0-.59.59-.53Zm87.66 1.86.39 1.56q.15.58.74.55l1.22-.06q.78-.04.51-.77l-3.3-9.23a1.87 1.87 0 0 0-3.53.01l-3.31 9.32a.61.61 0 0 0 .61.81l1.12-.06q.37-.02.46-.38l.45-1.73a.77.75 6.7 0 1 .74-.57h3.2q.57 0 .7.55Zm46.57-1.08-3.66-7.43a1.67 1.67 0 0 0-3.16.74v9.34a.63.62-2.9 0 0 .69.62l.73-.08q.69-.07.66-.76l-.31-7.33q-.05-1.02.43-.12l4.11 7.71a1.6 1.6 0 0 0 3.01-.8q-.14-4.7-.04-9.28.01-.69-.67-.6l-.86.12q-.5.07-.5.57l-.01 7.2a.22.22 0 0 1-.42.1Zm-144.52-5.85-.14-1.07a.99.99 0 0 0-1.97.19q.06.95-.62 1.38-.44.27-.54.78-.19.93.66 1.32a.98.96-77.6 0 1 .55.88q.02 1.96.01 3.94a1.25 1.23 21.9 0 0 .41.94q1.73 1.56 3.81.04.63-.46-.07-.8l-1.8-.86q-.35-.16-.35-.56v-2.98q0-.61.6-.73l.89-.18q.41-.08.54-.46l.11-.3a.65.64-78.3 0 0-.56-.86l-.89-.07a.7.7 0 0 1-.64-.6Zm41.31 2.42.8-.06q.59-.05.59-.64v-.46q0-.63-.62-.63h-.84a.59.59 0 0 1-.57-.45l-.3-1.15a.8.8 0 0 0-1.56.05q-.25 1.25-1.5 1.9-.65.34-.08.8l1.08.89q.39.31.39.81v4.05a1.2 1.2 0 0 0 .57 1.02q1.36.83 2.93.35a.99.85-55.3 0 0-.2-1.83q-.49.1-.79-.21-.51-.54-.51-.73v-3.05a.66.66 0 0 1 .61-.66Zm-48.19 1.06q.33 1.95-.04 4.63a.7.7 0 0 0 .58.78l1.18.18a.54.53-85.4 0 0 .61-.53v-5.78a2.21 2.21 0 0 0-2.69-2.16l-1.86.41q-.35.08-.69-.02l-1.67-.46q-.4-.12-.39.3l.08 7.53q0 .63.63.7l.92.09q.66.07.66-.6l.02-4.85a1.34 1.34 0 0 1 2.66-.22Zm53.324-2.092a.99.99 0 0 0-.992-.988h-.26a.99.99 0 0 0-.988.992l.012 6.74a.99.99 0 0 0 .992.988h.26a.99.99 0 0 0 .988-.992l-.012-6.74Zm17.006 1.992v4.87q0 .66.65.76l.8.12q.78.12.79-.67c.03-2.34 1.15-8.61-3.15-7.83-.84.15-2.04 1.46-2.65 0a.75.74-56.4 0 0-1.43.29l-.01 7.32q0 .61.59.73l.96.18a.58.58 0 0 0 .69-.57l.02-4.89a1.46 1.3-48.2 0 1 2.74-.31Zm40.44-2.14-1.08-.74q-.86-.58-.86.46v10.81a.63.63 0 0 0 .72.62l1.09-.16q.6-.1.53-.7l-.33-2.73q-.08-.7.56-.39l1.12.56q.47.23.97.14c4.84-.87 3.48-11.48-2.16-7.86q-.28.18-.56-.01Zm9.21-.04-.79-.61a.76.76 0 0 0-1.22.59l-.12 9.95a1.36.95 61.2 0 0 2.09 1.04q.31-1.51.09-3.02-.11-.8.66-.57l1.72.53q.42.13.8-.11c4.4-2.73 2.28-10.78-2.49-7.77a.65.65 0 0 1-.74-.03Zm14.73 4.09-1.27-4.15q-.21-.69-.93-.64l-.89.06q-.81.06-.55.83c.82 2.36 3.71 7.82 1.97 9.93a.56.56 0 0 0 .37.91l1.11.15q.67.08.89-.56l3.52-10.38q.16-.46-.29-.66c-2.35-1.01-2.55 3.19-3.17 4.56a.41.41 0 0 1-.76-.05Zm39.14.37-1.18-4.34a1.22 1.22 0 0 0-2.37.05l-.99 4.25a.36.36 0 0 1-.7-.02c-.18-1.13-.82-6.09-2.9-5.05a.69.69 0 0 0-.36.78c.54 2.08 1.12 8.32 4.17 7.82q.62-.11.76-.73l.8-3.53a.38.38 0 0 1 .74-.01l.81 3.22a1.61 1.61 0 0 0 3.11.03l1.88-6.88a.69.69 0 0 0-.7-.87l-.65.03a.78.77 5.6 0 0-.71.58l-1.11 4.66a.31.31 0 0 1-.6.01Zm-198-4.92c-1.11-.21-5.34-.57-5 1.64a.69.69 0 0 0 1.05.48q1.61-1 3.11.03a.57.57 0 0 1-.43 1.03q-1.94-.39-3.42.78a2.31 2.3-33.9 0 0-.58 2.96c1.5 2.6 3.87.48 6.02 1.44a.54.54 0 0 0 .76-.5l-.09-6.16a1.77 1.76 5.3 0 0-1.42-1.7Zm8.42 5.89c-2.61 2.22-3.4-1.71-2.69-3.48a1.28 1.27 29.5 0 1 1.95-.54q.75.57 1.12.35a1.2 1.2 0 0 0-.32-2.22c-2.35-.53-4.14-.08-5.11 2.26-2.09 5.03 4.71 8.63 6.1 4.34a.66.66 0 0 0-1.05-.71Zm7.27-5.88c-1.24-.26-5.22-.61-4.94 1.65a.55.55 0 0 0 .72.46c.65-.2 3.79-1.03 3.5.55a.65.64 8.9 0 1-.72.52q-3.54-.47-4.08 2.76-.07.47.19.87 1.37 2.07 3.73 1.36a2.74 2.62-49.5 0 1 .97-.1l1.79.16q.51.04.49-.46l-.23-6.09a1.78 1.78 0 0 0-1.42-1.68Zm40.07 4.04a4.33 4.33 0 0 0-4.33-4.33 4.33 4.33 0 0 0-4.33 4.33 4.33 4.33 0 0 0 4.33 4.33 4.33 4.33 0 0 0 4.33-4.33Zm3.67-2.18q1.24-.48 2.35.33a.57.57 0 0 0 .9-.36c.49-2.76-4.03-2.26-5.16-.97a2.1 2.1 0 0 0 .74 3.32l2.44 1.06a.41.41 0 0 1 .04.73q-1.55.88-3.03-.1-.36-.24-.63.09-.78.91.32 1.79c3.59 2.86 9.44-3.24 2.1-4.97a.49.48 40.9 0 1-.07-.92Zm7.482-1.391a.62.62 0 0 0-.626-.614l-.98.01a.62.62 0 0 0-.614.627l.076 7.22a.62.62 0 0 0 .626.613l.98-.01a.62.62 0 0 0 .614-.627l-.076-7.22Zm21.008 3.581a4.33 4.33 0 0 0-4.33-4.33 4.33 4.33 0 0 0-4.33 4.33 4.33 4.33 0 0 0 4.33 4.33 4.33 4.33 0 0 0 4.33-4.33Zm14.12 2.19q-1.61.28-3.12-.36-.88-.38-.67.56c.68 2.95 6.18 2.37 6.32-1.12a1.16 1.15-74.9 0 0-.61-1.07l-3.45-1.87a.13.13 0 0 1-.06-.17q.06-.17.11-.32a.43.42-74.8 0 1 .49-.29l1.98.43a.93.93 0 0 0 .58-1.76q-2.1-.96-3.99.04a2.12 2.12 0 0 0-.01 3.75l2.56 1.37a.43.43 0 0 1-.13.81Zm86.44-2.2a4.34 4.34 0 0 0-4.34-4.34 4.34 4.34 0 0 0-4.34 4.34 4.34 4.34 0 0 0 4.34 4.34 4.34 4.34 0 0 0 4.34-4.34Z"/><path fill="#1a64b7" d="M195.75 181.29a.27.27 0 0 1-.27.27H32.52a.27.27 0 0 1-.27-.27V18.77a.27.27 0 0 1 .27-.27h162.96a.27.27 0 0 1 .27.27v162.52Zm-38.18-87.73a43.68 43.68 0 0 0-43.68-43.68 43.68 43.68 0 0 0-43.68 43.68 43.68 43.68 0 0 0 43.68 43.68 43.68 43.68 0 0 0 43.68-43.68Zm2.7-24.83c-1.1-7.52-5.95-12.49-13.24-14.52q-.36-.1-.14.2 5.64 8.04 12.97 14.53a.25.24 17 0 0 .41-.21ZM80.26 54.7c-7.09 2-11.94 6.97-12.98 14.36q-.06.45.31.18c5.94-4.38 8.51-9.26 12.82-14.3q.32-.37-.15-.24Zm83.94 21.33c-3.22-5.52-8.37-7.11-11.9-11.74q-.76-.99-.44.22c2.06 7.61 9.13 10.78 14.25 16.55q.29.32.26-.11c-.75-9.42 1.97-16.28-7.65-21.4a.29.28 80.4 0 0-.32.46c3.39 3.26 4.64 11.32 6.05 15.9q.36 1.17-.25.12Zm-100.84.15c1.23-4.57 2.16-11.91 5.38-15.39a.28.28 0 0 0-.34-.43c-9.03 5.08-6.99 12.83-7.09 21.38q0 .69.43.15c5-6.34 10.98-8.59 13.89-16.56a.39.39 0 0 0-.69-.35c-3.15 4.64-8.09 6.21-11.36 11.29q-.43.67-.22-.09ZM167.74 89c-.37-5.78-6.25-9.68-9.93-13.57q-.37-.39-.26.14c1.55 7.79 8.19 13.68 11.03 20.36q.06.12.08 0c1.03-4.53 3.24-9.33 3.55-13.28q.64-8.17-4.63-14.79-.58-.74-.28.15c1.87 5.47 1 10.67.71 16.31-.07 1.31.59 3.18.13 4.73q-.33 1.1-.4-.05ZM59.6 90.22q.57-7.28-.34-14.5-.4-3.11.45-6a.26.26 0 0 0-.46-.22c-6.41 9.56-3.37 17.09.28 26.83q.21.56.37-.01 1.24-4.27 2.34-5.55 5.42-6.36 8-14.17a.27.27 0 0 0-.44-.28q-3.89 3.64-7.41 7.66c-1.64 1.87-1.78 4-2.45 6.3a.17.17 0 0 1-.34-.06Zm107.75 15.99c1.36-7.58-1.68-11.49-4.8-16.6q-2.06-3.37-1.38.52 1.38 7.82 3.82 15.02c.76 2.25.47 4.33.51 6.64q0 .57.35.11c6.81-8.98 11.68-14.97 8.58-26.83q-.44-1.68-.56.05c-.53 7.3-4.73 12.87-5.91 20.93-.03.17-.19.37-.33.41q-.34.09-.28-.25Zm-107.19.78c-1.35-7.64-5.49-13.78-6.25-21.28q-.11-1.09-.38-.03-1.92 7.65.52 14.88c1.49 4.41 5.3 8.33 8.2 12.33q.51.71.45-.16c-.13-1.97-.43-3.86.16-5.77q2.54-8.3 4.03-17.75.3-1.92-.75-.29c-4.01 6.22-6.01 10.09-5.61 18.03a.19.19 0 0 1-.37.04Zm101.19 13.65c3.23-6.81 1.62-11.9.5-18.96q-.15-.89-.44-.03c-2.73 8.17-1.23 16.53-4.71 24.56q-.2.46.24.21c9.88-5.59 18.83-11.91 18.5-24.2q-.03-1.15-.37-.05-1.51 4.79-3.21 6.43-5.78 5.56-10.26 12.18a.14.14 0 0 1-.25-.14Zm-95.07.75q-1.16-1.72-2.32-3.42c-3.88-5.71-9.33-8.36-10.9-14.93q-.39-1.64-.45.04c-.43 13.09 9.28 18.07 18.43 24.2q.83.55.46-.38c-3.13-8.01-3.03-16.49-4.71-24.87a.36.36 0 0 0-.72.05c-.36 7.39-2.92 11.93.55 19.09a.21.2-76.4 0 1-.34.22Zm83.99 11.54c5.66-5.82 5.42-11.72 7.09-19.24q.1-.47-.22-.1c-6.15 6.95-6.01 15.81-11.88 22.61q-.42.49.22.4c12.16-1.81 21.15-5.33 25.83-17.5a.26.26 0 0 0-.46-.25c-1.7 2.4-3.56 4.51-6.32 5.93q-7.3 3.75-14.06 8.38-1.24.84-.2-.23ZM78 134.17q-6.83-5.21-14.73-8.66-2.94-1.29-6.27-6.15-.82-1.18-.32.17 4.82 13.07 18.6 16.03 3.66.78 7.28 1.52.52.1.2-.32c-5.04-6.75-5.63-15.31-11.8-22.42q-.44-.51-.29.14c1.76 7.31 1.51 13.65 7.24 18.83q.26.24.36.69.09.44-.27.17Zm59.03 5.3c.01-.25.27-.42.52-.47 6.17-1.32 8.77-7.01 11-12.54q.35-.88-.35-.25c-5.97 5.3-10.56 11.39-18.5 13.61q-.57.15 0 .3c12.45 3.2 23.58 5.94 31.77-5.9q.34-.49-.15-.15c-7.18 5.06-16.24 4.18-24.08 5.59q-.23.04-.21-.19Zm-45.8.57c-7.65-1.27-17.36-.53-23.69-4.99a.29.29 0 0 0-.39.41c8.45 10.97 19.35 8.23 31.41 4.89q.66-.19 0-.37c-8.23-2.21-12.47-8.13-18.73-13.31a.17.17 0 0 0-.26.2c2.72 6.78 4.74 10.12 11.73 12.92q1.12.45-.07.25Zm26.46 1.87c4.71-.98 10.25 4.29 13.37 5.7q11.45 5.17 20.16-3.04.93-.87-.24-.36c-11.49 5.08-16.2-2.46-26.76-3.79-4.24-.54-8.08.86-12.11.22-13.52-2.14-22.52 9.9-35.17 3.77q-.88-.43-.18.25 7.88 7.56 18.02 4.41c5.63-1.74 9.82-7.63 15.83-7.34a.45.45 0 0 1 .18.86q-6.88 3.46-12.39 8.84-.47.47.04.88l1.71 1.38a.46.46 0 0 0 .65-.08q5.2-6.44 12.44-10.4a2.08 2.07-44.1 0 1 2.04.03q7.05 4.13 12.44 10.28.38.43.79.03l1.66-1.6a.45.45 0 0 0 0-.66q-5.69-5.26-12.56-8.79-.79-.41.08-.59ZM277.75 97.48a.27.27 0 0 1-.27.27h-77.46a.27.27 0 0 1-.27-.27v-78.7a.27.27 0 0 1 .27-.27h77.46a.27.27 0 0 1 .27.27v78.7Zm-46.71-19.96c-4.42-3.12-5.55-9.57-5.54-14.78q.05-15.33-.03-30.72a.52.52 0 0 0-.52-.52h-5.68q-.49 0-.5.49-.07 13.16 0 26.28c.09 15.94 2.62 28.22 22.15 26.49 11.42-1.02 16.63-10.67 16.63-21.27q-.01-15.74-.08-31.5 0-.49-.49-.49h-5.71q-.52 0-.52.52.05 16.08-.15 32.17-.09 6.94-2.87 10.81c-3.66 5.09-11.71 6.02-16.69 2.52ZM361.75 97.48a.27.27 0 0 1-.27.27h-78.7a.27.27 0 0 1-.27-.27v-78.7a.27.27 0 0 1 .27-.27h78.7a.27.27 0 0 1 .27.27v78.7Zm-52.93-56.77c7.69 14.97 17.17 29.14 26.08 43.43q.22.36.65.36h5.95q.5 0 .5-.5V32.25q0-.5-.5-.5h-5.31q-.56 0-.56.56l.41 42.69q0 .37-.16.04c-7.3-14.84-16.85-28.94-25.8-42.85a.98.98 0 0 0-.82-.44h-6q-.98 0-.98.99l.05 51.38q0 .48.48.47l5.37-.13q.63-.01.63-.64l-.19-43.07q0-.43.2-.04Z"/><path fill="#fff" d="M231.04 77.52c4.98 3.5 13.03 2.57 16.69-2.52q2.78-3.87 2.87-10.81.2-16.09.15-32.17 0-.52.52-.52h5.71q.49 0 .49.49.07 15.76.08 31.5c0 10.6-5.21 20.25-16.63 21.27-19.53 1.73-22.06-10.55-22.15-26.49q-.07-13.12 0-26.28.01-.49.5-.49h5.68a.52.52 0 0 1 .52.52q.08 15.39.03 30.72c-.01 5.21 1.12 11.66 5.54 14.78ZM308.62 40.75l.19 43.07q0 .63-.63.64l-5.37.13q-.48.01-.48-.47l-.05-51.38q0-.99.98-.99h6a.98.98 0 0 1 .82.44c8.95 13.91 18.5 28.01 25.8 42.85q.16.33.16-.04l-.41-42.69q0-.56.56-.56h5.31q.5 0 .5.5V84q0 .5-.5.5h-5.95q-.43 0-.65-.36c-8.91-14.29-18.39-28.46-26.08-43.43q-.2-.39-.2.04ZM157.57 93.56a43.68 43.68 0 0 1-43.68 43.68 43.68 43.68 0 0 1-43.68-43.68 43.68 43.68 0 0 1 43.68-43.68 43.68 43.68 0 0 1 43.68 43.68Zm-16.21-31.04q-11.03-9.6-25.73-10.38a.71.71 0 0 0-.74.76l.39 4.69a.92.91.4 0 0 .83.84q7.1.67 13.42 3.93.51.26 1.05.08l.79-.26q.49-.15.97 0 3.77 1.18 5.39 4.69.24.52.64.1l3.05-3.22a.86.85-48 0 0-.06-1.23Zm-54.3 2.42 2.7 2.7q.41.4.83.02 9.01-8.19 21.22-9.17.57-.05.55-.62l-.16-5.14q-.02-.61-.62-.56-14.76 1.15-25.72 10.91-.37.33-.11.75.2.32.49.51a1.41.08 33.1 0 1 .82.6Zm4.98 5.04 3.87 3.77a.42.42 0 0 0 .57.01q6.6-5.81 15.43-6.56.58-.05.56-.63l-.11-5.07q-.01-.47-.48-.43-11.31.92-19.82 8.32-.33.28-.02.59Zm36.43-1.06 1.52 1.75a.38.38 0 0 0 .67-.25c-.01-7.78-9.25-8.97-15.14-9.39q-.52-.04-.52.49v5.15q0 .5.5.54 6.76.45 12.45 4.02.45.28.34-.23l-.39-1.79a.33.33 0 0 1 .57-.29Zm10.79.92q9.22 8.95 9.66 22.03.02.51.53.5l5.51-.17q.5-.01.47-.51-1-15.21-11.17-26.5a.54.54 0 0 0-.8 0l-4.21 4.52a.09.09 0 0 0 .01.13Zm-52.5-1.85q-1.22-1.49-2.72-2.43-.43-.27-.76.11-9.85 11.23-10.67 26.32-.03.51.48.51h5.36q.64 0 .68-.64.76-12.45 8.9-21.76.37-.41.06-.87t-.76-.74q-.33-.2-.57-.5Zm42.7 7.14q-6.16-4.72-13.91-5.56-.53-.06-.53.47v5.14q0 .47.46.52 5.5.59 9.88 3.91.32.25.6-.05l3.55-3.69a.5.49-49.7 0 0-.05-.74Zm-28.22 3.98q.32.47.81.62.52.16.93-.19 3.93-3.34 9.09-3.84.43-.04.43-.47v-4.96a.64.63-3.2 0 0-.71-.63q-7.58.9-13.5 5.7a.5.5 0 0 0-.05.72q1.24 1.38 2.65 2.65a2.27 2.17 5.1 0 1 .35.4Zm35.89-.53.73 2.4q.16.52.5.94l.87 1.08q.33.4.05.83-1.23 1.96.24 2.7.4.21.45.65l.56 4.7q.06.53.6.51l5.12-.19q.45-.02.42-.46-.41-5.36-2.44-10.35-.18-.44-.64-.56l-1.01-.26a1.22 1.22 0 0 1-.73-.53q-1.52-2.38-4.22-3.33-.56-.2-.77-.76-.42-1.11-1.59-1.22a.89.89 0 0 1-.78-.72q-.28-1.53-.73-2.92a.94.93-23.8 0 0-1.36-.52c-2.09 1.19 1.59 5.72 3.09 7.83a.63.61 63 0 0 .7.24l.66-.21q.21-.06.28.15ZM87.58 92.33q.53-9.26 6.58-16.26.36-.42-.03-.81l-3.63-3.64q-.4-.39-.76.03-7.4 8.71-8.31 20.2-.05.66.61.65l5.37-.01a.17.17 0 0 0 .17-.16Zm12.54-11.19-3.58-3.43q-.37-.35-.68.04-5.07 6.16-5.89 14.11a.58.57-86.9 0 0 .57.64h1.17q.61 0 .53-.61c-.6-4.17 5.16-7.26 7.85-9.57a.8.79 46.6 0 0 .03-1.18Zm36.55 7.88c1.72-3.15-.06-3.98-2.13-5.68q-.41-.34-.34-.87.38-3.04-2.43-4.68-.49-.29-.89.13l-3.61 3.85q-1.49 1.6.63 1.07 4.11-1.04 5.05 2.79.12.5.57.24c2.28-1.37 3.33 1.34 2.15 3.14q-.08.11.05.15.14.04.29.1.43.16.66-.24Zm-30.55-4.67 2.72.41q.68.11.81-.57l.24-1.24q.14-.73.83-.43l1.16.5a.45.45 0 0 0 .62-.41v-3.87q0-.52-.51-.44-4.6.64-8.1 3.66-.44.38.08.65 1.23.65 1.46 2.1.02.13.12.03l.31-.31a.29.29 0 0 1 .26-.08Zm13.38-1.73q-.35 1.77-2.21 2.22-.34.08-.03.24l2.16 1.09q.53.27.81-.26.76-1.44 2.35-1.91a.6.59 68.2 0 0 .36-.85q-.43-.79.32-1.37a.45.44 41.5 0 0-.05-.74q-3.56-2.11-7.64-2.83-.55-.09-.51.47l.27 3.74a.59.59 0 0 0 .84.5l2.32-1.09a.72.72 0 0 1 1.01.79Zm-6.19 4.7q.37-.68-.25-1.14-.69-.51-.58.34l.18 1.45q.07.56-.45.75c-2.26.82-5.5 3.26-3.17 5.69q.35.36.19.85-.4 1.16-1.33 1.96a.21.21 0 0 0 .24.35q1.45-.78 1.97-2.35.2-.59.82-.52l2.02.21a.46.45 3 0 1 .4.44q.1 3.45-2.81 4.16a.36.36 0 0 0 .01.7l3.64.83a.81.81 0 0 0 .97-.56q.22-.72.42-1.48.12-.47.55-.69.43-.24.96.16a1.02 1.02 0 0 0 1.63-.76q.13-2.59-1.39-4.76a.73.72-44.7 0 1 .01-.86l.29-.39a.61.61 0 0 0 .04-.67q-1.37-2.36-3.96-2.85a.59.58-70.2 0 1-.4-.86Zm25.19 1.59q.92-.4-.23-1.1-.39-.23-.32.22l.08.61q.06.45.47.27Zm-1.05 3.51a.53.53 0 0 0 .62-.6l-.24-1.61q-.1-.7-.6-.2L136 91.24a.57.57 0 0 0 .3.97l1.15.21Zm-43.33 6.26q-.29-3 1.98-2.89a.46.46 0 0 0 .49-.49l-.13-3a.66.66 0 0 0-.66-.63h-1.26a.57.57 0 0 0-.43.94c2.41 2.71-5.15 3.33-.99 7.88q.33.36.39.85.47 3.93 1.77 7.63.2.55-.3.88-.47.32-.37.73.13.52.5.14l4.79-4.92q.35-.37.04-.77-2.65-3.39-3.63-7.57a.26.25 84.5 0 0-.25-.21h-.33q-.51.01-.47.52.06.84-.65 1.18-.45.22-.49-.27Zm11.52-5.48a1 1 0 0 0-1 .53l-.53 1.04q-.26.51.3.53 1.34.05 2.57-.39.54-.19.26-.69-.49-.88-1.6-1.02Zm29.46 2.17q.52 1.8 2.25 2.8.34.19.39-.2l.34-2.62q.07-.55-.49-.59-1.05-.06-2.11.04-.53.06-.38.57Zm-58.5 13.35q-1.87-2.44-.87-5.26.15-.41.57-.51l3.2-.72q.38-.09.34-.47l-.75-6.29q-.06-.51-.57-.51l-5.26.06q-.62 0-.59.63.86 14.84 10.63 25.88a.64.63-44.1 0 0 .94.01l3.62-3.79q.45-.48-.04-.92l-3.33-3.06q-.42-.39-.98-.53-1.06-.27-1.48-1.32-.23-.58-.8-.85L77 109.05q-.24-.12-.4-.33Zm5.57-13.73q-.94-.01-.78.92l1.24 7.01a.4.39-52.1 0 0 .78-.1q-.27-4.19 3.72-5.8a1.04 1.04 0 0 0-.39-2.01l-4.57-.02Zm8.18-.37q-.74 1.9.13 3.65.04.08.08.01.86-1.74.47-3.6-.25-1.15-.68-.06Zm50.13 5.64-.55.26a1.01 1-4.3 0 0-.53.61q-1.7 5.47-5.38 9.84a.63.63 0 0 0 .05.86q1.06 1.02 2.41.4a.53.52-21.4 0 1 .72.31l.74 2.34a.46.45 56.3 0 0 .78.16q7.13-8.61 7.98-19.8.03-.49-.45-.49h-4.99q-.51 0-.65.49-.68 2.26.14 4.34.18.46-.27.68Zm-.23 17.44 3.86 3.75q.32.32.62-.02 9.79-11.25 10.72-26.19.03-.49-.46-.49h-5.47q-.45 0-.48.45-.91 12.26-8.84 21.55a.7.69 42.5 0 0 .05.95Zm-37.23-17.94a.44.44 0 0 1-.86.07q-.58-1.78-2.48-2.1a.43.42-8.9 0 0-.45.61l2.39 4.78a.58.58 0 0 0 .89.19q1.89-1.61.82-3.83-.14-.28-.25.01-.04.11-.06.27Zm21.48 2.42q-.1-1.18-1.23-1.1-.7.05-.23.57.4.45.87.84.67.56.59-.31Zm6.91 5.88 1.04.65q.5.32.78-.2l3.77-7.11a.5.49 9.3 0 0-.52-.72l-4.71.8q-.38.06-.63.35-1.23 1.43-.17 2.55.34.37.2.85l-.84 2.9a1.86 1.85 13.8 0 1-2.16 1.3l-4.68-.99q-1.26-.26-.18.43 2.97 1.91 6.42 1.4a.86.85 2 0 0 .7-.65l.31-1.29q.14-.61.67-.27Zm-19.73-4.55-3.62-1.96q-.45-.24-.79.14l-3.02 3.27q-.41.44.08.8 3.03 2.2 6.65 3.05.76.17.77-.61 0-.24.03-.44.09-.55.58-.82.88-.5.66-1.61-.24-1.23-1.34-1.82Zm5.42 3.99q-.29-.49-.81-.52-.47-.03-.83.29l-2.64 2.32a.31.31 0 0 0-.09.34q.04.13.08.25a.29.28 62.2 0 0 .44.14q2.41-1.8 4.46.19.42.4.92.12c1.49-.82 4.46-2.26 4.36-3.62q-.03-.36-.38-.27l-4.44 1.19q-.7.19-1.07-.43Zm-8.11 4.05-7.07-3.94a.48.46 35.9 0 0-.55.08l-3.19 3.28q-.44.46.05.86 4.72 3.88 10.72 5.26.86.19.17-.36-2.98-2.35-.12-5.11a.05.04 37.8 0 0-.01-.07Zm22.43 3.48 1.78 1.22a.6.6 0 0 1 .05.95q-1.18 1.02-1.01 2.52.1.82.75.32l2.44-1.86a.64.63 57.6 0 0 .17-.79c-.15-.27-4.57-7.1-4.61-3.19a1.02 1-72.8 0 0 .43.83Zm-32.86.98c-.47 1.51-5.23 1.87-6.38 1.73q-.38-.05-.09.19 8.69 7.19 19.94 8.25.47.04.47-.43v-5q0-.49-.49-.52-7.07-.43-12.84-4.43-.44-.31-.61.21Zm41.71 4.95q-.78-.95-1.7-1.7-.46-.37-.9.01-2.19 1.9-4.57 3.58c-2.89 2.04-4.07 4.93-7.57 6.71q-.44.22-.85-.05l-2.23-1.53a1.13 1.09-31 0 0-.78-.18l-5.95.85q-.56.08-.56.64l.02 5.27q0 .41.41.39 15.29-.92 26.66-11.06.41-.37.1-.84-.58-.85-1.35-1.41-.41-.29-.73-.68Zm-28.41 7.58q-12.18-.87-21.26-8.88a.82.82 0 0 0-1.1.02l-3.8 3.61q-.43.41.03.79 11.3 9.68 26.18 10.91.58.05.59-.54l.01-5.21q0-.65-.65-.7Zm7.6-3.5q-2.61-.74-1.52-3.24.31-.69-.45-.73l-1.83-.09q-.65-.04-.62.61l.19 4.03q.03.6.62.53l3.4-.41a.41.33-34.5 0 0 .21-.7Z"/><path fill="#1a64b7" d="M141.36 62.52a.86.85-48 0 1 .06 1.23l-3.05 3.22q-.4.42-.64-.1-1.62-3.51-5.39-4.69-.48-.15-.97 0l-.79.26q-.54.18-1.05-.08-6.32-3.26-13.42-3.93a.92.91.4 0 1-.83-.84l-.39-4.69a.71.71 0 0 1 .74-.76q14.7.78 25.73 10.38Zm-18.25-6.17q-3.66-1.77-7.04.75-.67.5.15.63 3.48.56 6.83-.54a.45.45 0 0 0 .06-.84Zm10.55 5.24q.42.97 1.52 1.3a.53.52-1.1 0 0 .65-.67q-.42-1.25-1.76-1.27-.69 0-.41.64ZM86.24 64.34q-.29-.19-.49-.51-.26-.42.11-.75 10.96-9.76 25.72-10.91.6-.05.62.56l.16 5.14q.02.57-.55.62-12.21.98-21.22 9.17-.42.38-.83-.02l-2.7-2.7a1.41.08 33.1 0 0-.82-.6Z"/><path fill="#fff" d="M147.03 54.21c7.29 2.03 12.14 7 13.24 14.52a.25.24 17 0 1-.41.21q-7.33-6.49-12.97-14.53-.22-.3.14-.2ZM67.28 69.06c1.04-7.39 5.89-12.36 12.98-14.36q.47-.13.15.24c-4.31 5.04-6.88 9.92-12.82 14.3q-.37.27-.31-.18ZM123.11 56.35a.45.45 0 0 1-.06.84q-3.35 1.1-6.83.54-.82-.13-.15-.63 3.38-2.52 7.04-.75Z"/><path fill="#fff" d="M164.45 75.91c-1.41-4.58-2.66-12.64-6.05-15.9a.29.28 80.4 0 1 .32-.46c9.62 5.12 6.9 11.98 7.65 21.4q.03.43-.26.11c-5.12-5.77-12.19-8.94-14.25-16.55q-.32-1.21.44-.22c3.53 4.63 8.68 6.22 11.9 11.74q.61 1.05.25-.12ZM63.58 76.27c3.27-5.08 8.21-6.65 11.36-11.29a.39.39 0 0 1 .69.35c-2.91 7.97-8.89 10.22-13.89 16.56q-.43.54-.43-.15c.1-8.55-1.94-16.3 7.09-21.38a.28.28 0 0 1 .34.43c-3.22 3.48-4.15 10.82-5.38 15.39q-.21.76.22.09ZM134.07 60.95q1.34.02 1.76 1.27a.53.52-1.1 0 1-.65.67q-1.1-.33-1.52-1.3-.28-.64.41-.64Z"/><path fill="#1a64b7" d="M92.04 69.98q-.31-.31.02-.59 8.51-7.4 19.82-8.32.47-.04.48.43l.11 5.07q.02.58-.56.63-8.83.75-15.43 6.56a.42.42 0 0 1-.57-.01l-3.87-3.77ZM127.9 69.21l.39 1.79q.11.51-.34.23-5.69-3.57-12.45-4.02-.5-.04-.5-.54v-5.15q0-.53.52-.49c5.89.42 15.13 1.61 15.14 9.39a.38.38 0 0 1-.67.25l-1.52-1.75a.33.33 0 0 0-.57.29ZM139.26 69.84a.09.09 0 0 1-.01-.13l4.21-4.52a.54.54 0 0 1 .8 0q10.17 11.29 11.17 26.5.03.5-.47.51l-5.51.17q-.51.01-.53-.5-.44-13.08-9.66-22.03ZM87.33 68.49q.45.28.76.74.31.46-.06.87-8.14 9.31-8.9 21.76-.04.64-.68.64h-5.36q-.51 0-.48-.51.82-15.09 10.67-26.32.33-.38.76-.11 1.5.94 2.72 2.43.24.3.57.5Z"/><path fill="#fff" d="M168.14 89.05c.46-1.55-.2-3.42-.13-4.73.29-5.64 1.16-10.84-.71-16.31q-.3-.89.28-.15 5.27 6.62 4.63 14.79c-.31 3.95-2.52 8.75-3.55 13.28q-.02.12-.08 0c-2.84-6.68-9.48-12.57-11.03-20.36q-.11-.53.26-.14c3.68 3.89 9.56 7.79 9.93 13.57q.07 1.15.4.05ZM59.94 90.28c.67-2.3.81-4.43 2.45-6.3q3.52-4.02 7.41-7.66a.27.27 0 0 1 .44.28q-2.58 7.81-8 14.17-1.1 1.28-2.34 5.55-.16.57-.37.01c-3.65-9.74-6.69-17.27-.28-26.83a.26.26 0 0 1 .46.22q-.85 2.89-.45 6 .91 7.22.34 14.5a.17.17 0 0 0 .34.06Z"/><path fill="#1a64b7" d="M129.46 75.13a.5.49-49.7 0 1 .05.74l-3.55 3.69q-.28.3-.6.05-4.38-3.32-9.88-3.91-.46-.05-.46-.52v-5.14q0-.53.53-.47 7.75.84 13.91 5.56ZM100.89 78.71q-1.41-1.27-2.65-2.65a.5.5 0 0 1 .05-.72q5.92-4.8 13.5-5.7a.64.63-3.2 0 1 .71.63v4.96q0 .43-.43.47-5.16.5-9.09 3.84-.41.35-.93.19-.49-.15-.81-.62a2.27 2.17 5.1 0 0-.35-.4ZM136.85 78.43l-.66.21a.63.61 63 0 1-.7-.24c-1.5-2.11-5.18-6.64-3.09-7.83a.94.93-23.8 0 1 1.36.52q.45 1.39.73 2.92a.89.89 0 0 0 .78.72q1.17.11 1.59 1.22.21.56.77.76 2.7.95 4.22 3.33a1.22 1.22 0 0 0 .73.53l1.01.26q.46.12.64.56 2.03 4.99 2.44 10.35.03.44-.42.46l-5.12.19q-.54.02-.6-.51l-.56-4.7q-.05-.44-.45-.65-1.47-.74-.24-2.7.28-.43-.05-.83l-.87-1.08q-.34-.42-.5-.94l-.73-2.4q-.07-.21-.28-.15ZM87.58 92.33a.17.17 0 0 1-.17.16l-5.37.01q-.66.01-.61-.65.91-11.49 8.31-20.2.36-.42.76-.03l3.63 3.64q.39.39.03.81-6.05 7-6.58 16.26Z"/><path fill="#1a64b7" d="M100.12 81.14a.8.79 46.6 0 1-.03 1.18c-2.69 2.31-8.45 5.4-7.85 9.57q.08.61-.53.61h-1.17a.58.57-86.9 0 1-.57-.64q.82-7.95 5.89-14.11.31-.39.68-.04l3.58 3.43ZM134.54 83.34c2.07 1.7 3.85 2.53 2.13 5.68q-.23.4-.66.24-.15-.06-.29-.1-.13-.04-.05-.15c1.18-1.8.13-4.51-2.15-3.14q-.45.26-.57-.24-.94-3.83-5.05-2.79-2.12.53-.63-1.07l3.61-3.85q.4-.42.89-.13 2.81 1.64 2.43 4.68-.07.53.34.87ZM105.86 84.43l-.31.31q-.1.1-.12-.03-.23-1.45-1.46-2.1-.52-.27-.08-.65 3.5-3.02 8.1-3.66.51-.08.51.44v3.87a.45.45 0 0 1-.62.41l-1.16-.5q-.69-.3-.83.43l-.24 1.24q-.13.68-.81.57l-2.72-.41a.29.29 0 0 0-.26.08ZM119.5 82.62a.72.72 0 0 0-1.01-.79l-2.32 1.09a.59.59 0 0 1-.84-.5l-.27-3.74q-.04-.56.51-.47 4.08.72 7.64 2.83a.45.44 41.5 0 1 .05.74q-.75.58-.32 1.37a.6.59 68.2 0 1-.36.85q-1.59.47-2.35 1.91-.28.53-.81.26l-2.16-1.09q-.31-.16.03-.24 1.86-.45 2.21-2.22Z"/><path fill="#fff" d="M167.63 106.46c.14-.04.3-.24.33-.41 1.18-8.06 5.38-13.63 5.91-20.93q.12-1.73.56-.05c3.1 11.86-1.77 17.85-8.58 26.83q-.35.46-.35-.11c-.04-2.31.25-4.39-.51-6.64q-2.44-7.2-3.82-15.02-.68-3.89 1.38-.52c3.12 5.11 6.16 9.02 4.8 16.6q-.06.34.28.25ZM60.53 106.95c-.4-7.94 1.6-11.81 5.61-18.03q1.05-1.63.75.29-1.49 9.45-4.03 17.75c-.59 1.91-.29 3.8-.16 5.77q.06.87-.45.16c-2.9-4-6.71-7.92-8.2-12.33q-2.44-7.23-.52-14.88.27-1.06.38.03c.76 7.5 4.9 13.64 6.25 21.28a.19.19 0 0 0 .37-.04Z"/><path fill="#1a64b7" d="M113.71 88.18q2.59.49 3.96 2.85a.61.61 0 0 1-.04.67l-.29.39a.73.72-44.7 0 0-.01.86q1.52 2.17 1.39 4.76a1.02 1.02 0 0 1-1.63.76q-.53-.4-.96-.16-.43.22-.55.69-.2.76-.42 1.48a.81.81 0 0 1-.97.56l-3.64-.83a.36.36 0 0 1-.01-.7q2.91-.71 2.81-4.16a.46.45 3 0 0-.4-.44l-2.02-.21q-.62-.07-.82.52-.52 1.57-1.97 2.35a.21.21 0 0 1-.24-.35q.93-.8 1.33-1.96.16-.49-.19-.85c-2.33-2.43.91-4.87 3.17-5.69q.52-.19.45-.75l-.18-1.45q-.11-.85.58-.34.62.46.25 1.14a.59.58-70.2 0 0 .4.86ZM138.03 88.64l-.08-.61q-.07-.45.32-.22 1.15.7.23 1.1-.41.18-.47-.27ZM137.45 92.42l-1.15-.21a.57.57 0 0 1-.3-.97l1.23-1.23q.5-.5.6.2l.24 1.61a.53.53 0 0 1-.62.6ZM94.61 98.95q.71-.34.65-1.18-.04-.51.47-.52h.33a.26.25 84.5 0 1 .25.21q.98 4.18 3.63 7.57.31.4-.04.77l-4.79 4.92q-.37.38-.5-.14-.1-.41.37-.73.5-.33.3-.88-1.3-3.7-1.77-7.63-.06-.49-.39-.85c-4.16-4.55 3.4-5.17.99-7.88a.57.57 0 0 1 .43-.94h1.26a.66.66 0 0 1 .66.63l.13 3a.46.46 0 0 1-.49.49q-2.27-.11-1.98 2.89.04.49.49.27ZM105.64 93.2q1.11.14 1.6 1.02.28.5-.26.69-1.23.44-2.57.39-.56-.02-.3-.53l.53-1.04a1 1 0 0 1 1-.53ZM135.48 94.8q1.06-.1 2.11-.04.56.04.49.59l-.34 2.62q-.05.39-.39.2-1.73-1-2.25-2.8-.15-.51.38-.57ZM77 109.05l4.23 2.02q.57.27.8.85.42 1.05 1.48 1.32.56.14.98.53l3.33 3.06q.49.44.04.92l-3.62 3.79a.64.63-44.1 0 1-.94-.01q-9.77-11.04-10.63-25.88-.03-.63.59-.63l5.26-.06q.51 0 .57.51l.75 6.29q.04.38-.34.47l-3.2.72q-.42.1-.57.51-1 2.82.87 5.26.16.21.4.33ZM82.17 94.99l4.57.02a1.04 1.04 0 0 1 .39 2.01q-3.99 1.61-3.72 5.8a.4.39-52.1 0 1-.78.1l-1.24-7.01q-.16-.93.78-.92ZM91.03 94.68q.39 1.86-.47 3.6-.04.07-.08-.01-.87-1.75-.13-3.65.43-1.09.68.06ZM140.75 99.58q-.82-2.08-.14-4.34.14-.49.65-.49h4.99q.48 0 .45.49-.85 11.19-7.98 19.8a.46.45 56.3 0 1-.78-.16l-.74-2.34a.53.52-21.4 0 0-.72-.31q-1.35.62-2.41-.4a.63.63 0 0 1-.05-.86q3.68-4.37 5.38-9.84a1.01 1-4.3 0 1 .53-.61l.55-.26q.45-.22.27-.68Z"/><path fill="#1a64b7" d="M140.25 117.7a.7.69 42.5 0 1-.05-.95q7.93-9.29 8.84-21.55.03-.45.48-.45h5.47q.49 0 .46.49-.93 14.94-10.72 26.19-.3.34-.62.02l-3.86-3.75ZM103.02 99.76q.02-.16.06-.27.11-.29.25-.01 1.07 2.22-.82 3.83a.58.58 0 0 1-.89-.19l-2.39-4.78a.43.42-8.9 0 1 .45-.61q1.9.32 2.48 2.1a.44.44 0 0 0 .86-.07ZM123.91 102.49q-.47-.39-.87-.84-.47-.52.23-.57 1.13-.08 1.23 1.1.08.87-.59.31ZM130.74 108.33l-.31 1.29a.86.85 2 0 1-.7.65q-3.45.51-6.42-1.4-1.08-.69.18-.43l4.68.99a1.86 1.85 13.8 0 0 2.16-1.3l.84-2.9q.14-.48-.2-.85-1.06-1.12.17-2.55.25-.29.63-.35l4.71-.8a.5.49 9.3 0 1 .52.72l-3.77 7.11q-.28.52-.78.2l-1.04-.65q-.53-.34-.67.27ZM111.68 103.51q1.1.59 1.34 1.82.22 1.11-.66 1.61-.49.27-.58.82-.03.2-.03.44-.01.78-.77.61-3.62-.85-6.65-3.05-.49-.36-.08-.8l3.02-3.27q.34-.38.79-.14l3.62 1.96Z"/><path fill="#fff" d="M161.6 120.78q4.48-6.62 10.26-12.18 1.7-1.64 3.21-6.43.34-1.1.37.05c.33 12.29-8.62 18.61-18.5 24.2q-.44.25-.24-.21c3.48-8.03 1.98-16.39 4.71-24.56q.29-.86.44.03c1.12 7.06 2.73 12.15-.5 18.96a.14.14 0 0 0 .25.14ZM66.62 121.17c-3.47-7.16-.91-11.7-.55-19.09a.36.36 0 0 1 .72-.05c1.68 8.38 1.58 16.86 4.71 24.87q.37.93-.46.38c-9.15-6.13-18.86-11.11-18.43-24.2q.06-1.68.45-.04c1.57 6.57 7.02 9.22 10.9 14.93q1.16 1.7 2.32 3.42a.21.2-76.4 0 0 .34-.22Z"/><path fill="#1a64b7" d="M277.73 181.16a.59.59 0 0 1-.59.59h-76.8a.59.59 0 0 1-.59-.59v-77.98a.59.59 0 0 1 .59-.59h76.8a.59.59 0 0 1 .59.59v77.98Zm-16.34-43.75c-1.41-22.9-25.12-23.73-42.63-21.26q-.51.07-.51.59v50.99q0 .45.45.47 14 .81 17.92.25 26.46-3.79 24.77-31.04ZM361.691 181.46a.27.27 0 0 1-.27.269l-78.72-.138a.27.27 0 0 1-.27-.27l.138-78.62a.27.27 0 0 1 .27-.27l78.72.138a.27.27 0 0 1 .27.27l-.138 78.62Zm-46.661-34.18c8.28.95 18.32-.29 22.82-7.86 3.95-6.64 3.14-15.85-3.43-20.61-6.54-4.74-18.49-4.03-26.13-2.45q-.46.1-.47.56l-.26 50.86q0 .47.47.47H314q.5 0 .5-.5v-19.99q0-.54.53-.48ZM118.17 107.93l4.44-1.19q.35-.09.38.27c.1 1.36-2.87 2.8-4.36 3.62q-.5.28-.92-.12-2.05-1.99-4.46-.19a.29.28 62.2 0 1-.44-.14q-.04-.12-.08-.25a.31.31 0 0 1 .09-.34l2.64-2.32q.36-.32.83-.29.52.03.81.52.37.62 1.07.43ZM108.99 111.55a.05.04 37.8 0 1 .01.07q-2.86 2.76.12 5.11.69.55-.17.36-6-1.38-10.72-5.26-.49-.4-.05-.86l3.19-3.28a.48.46 35.9 0 1 .55-.08l7.07 3.94ZM131.42 115.03a1.02 1-72.8 0 1-.43-.83c.04-3.91 4.46 2.92 4.61 3.19a.64.63 57.6 0 1-.17.79l-2.44 1.86q-.65.5-.75-.32-.17-1.5 1.01-2.52a.6.6 0 0 0-.05-.95l-1.78-1.22Z"/><path fill="#fff" d="M150.47 133.16q6.76-4.63 14.06-8.38c2.76-1.42 4.62-3.53 6.32-5.93a.26.26 0 0 1 .46.25c-4.68 12.17-13.67 15.69-25.83 17.5q-.64.09-.22-.4c5.87-6.8 5.73-15.66 11.88-22.61q.32-.37.22.1c-1.67 7.52-1.43 13.42-7.09 19.24q-1.04 1.07.2.23ZM78.27 134q-.1-.45-.36-.69c-5.73-5.18-5.48-11.52-7.24-18.83q-.15-.65.29-.14c6.17 7.11 6.76 15.67 11.8 22.42q.32.42-.2.32-3.62-.74-7.28-1.52-13.78-2.96-18.6-16.03-.5-1.35.32-.17 3.33 4.86 6.27 6.15 7.9 3.45 14.73 8.66.36.27.27-.17ZM218.76 116.15c17.51-2.47 41.22-1.64 42.63 21.26q1.69 27.25-24.77 31.04-3.92.56-17.92-.25-.45-.02-.45-.47v-50.99q0-.52.51-.59Zm6.24 5.71v39.88a1.35 1.35 0 0 0 1.35 1.35h8.54a19.35 18.74 0 0 0 19.35-18.74v-5.1a19.35 18.74 0 0 0-19.35-18.74h-8.54a1.35 1.35 0 0 0-1.35 1.35ZM314.5 147.76v19.99q0 .5-.5.5h-5.97q-.47 0-.47-.47l.26-50.86q.01-.46.47-.56c7.64-1.58 19.59-2.29 26.13 2.45 6.57 4.76 7.38 13.97 3.43 20.61-4.5 7.57-14.54 8.81-22.82 7.86q-.53-.06-.53.48Zm-.05-25.3-.04 18.52a1.49 1.49 0 0 0 1.49 1.5l6.45.01a10.9 10.1.1 0 0 10.92-10.08v-1.3a10.9 10.1.1 0 0-10.88-10.12l-6.45-.01a1.49 1.49 0 0 0-1.49 1.48Z"/><path fill="#1a64b7" d="M92.18 117.74c1.15.14 5.91-.22 6.38-1.73q.17-.52.61-.21 5.77 4 12.84 4.43.49.03.49.52v5q0 .47-.47.43-11.25-1.06-19.94-8.25-.29-.24.09-.19ZM141 121.64q.77.56 1.35 1.41.31.47-.1.84-11.37 10.14-26.66 11.06-.41.02-.41-.39l-.02-5.27q0-.56.56-.64l5.95-.85a1.13 1.09-31 0 1 .78.18l2.23 1.53q.41.27.85.05c3.5-1.78 4.68-4.67 7.57-6.71q2.38-1.68 4.57-3.58.44-.38.9-.01.92.75 1.7 1.7.32.39.73.68Z"/><path fill="#1a64b7" d="M111.86 128.54q.65.05.65.7l-.01 5.21q-.01.59-.59.54-14.88-1.23-26.18-10.91-.46-.38-.03-.79l3.8-3.61a.82.82 0 0 1 1.1-.02q9.08 8.01 21.26 8.88ZM225 121.86a1.35 1.35 0 0 1 1.35-1.35h8.54a19.35 18.74 0 0 1 19.35 18.74v5.1a19.35 18.74 0 0 1-19.35 18.74h-8.54a1.35 1.35 0 0 1-1.35-1.35v-39.88ZM119.46 125.04a.41.33-34.5 0 1-.21.7l-3.4.41q-.59.07-.62-.53l-.19-4.03q-.03-.65.62-.61l1.83.09q.76.04.45.73-1.09 2.5 1.52 3.24ZM314.45 122.46a1.49 1.49 0 0 1 1.49-1.48l6.45.01a10.9 10.1.1 0 1 10.88 10.12v1.3a10.9 10.1.1 0 1-10.92 10.08l-6.45-.01a1.49 1.49 0 0 1-1.49-1.5l.04-18.52Z"/><path fill="#fff" d="M137.24 139.66c7.84-1.41 16.9-.53 24.08-5.59q.49-.34.15.15c-8.19 11.84-19.32 9.1-31.77 5.9q-.57-.15 0-.3c7.94-2.22 12.53-8.31 18.5-13.61q.7-.63.35.25c-2.23 5.53-4.83 11.22-11 12.54-.25.05-.51.22-.52.47q-.02.23.21.19ZM91.3 139.79c-6.99-2.8-9.01-6.14-11.73-12.92a.17.17 0 0 1 .26-.2c6.26 5.18 10.5 11.1 18.73 13.31q.66.18 0 .37c-12.06 3.34-22.96 6.08-31.41-4.89a.29.29 0 0 1 .39-.41c6.33 4.46 16.04 3.72 23.69 4.99q1.19.2.07-.25Z"/><path fill="#fff" d="M117.61 142.5q6.87 3.53 12.56 8.79a.45.45 0 0 1 0 .66l-1.66 1.6q-.41.4-.79-.03-5.39-6.15-12.44-10.28a2.08 2.07-44.1 0 0-2.04-.03q-7.24 3.96-12.44 10.4a.46.46 0 0 1-.65.08l-1.71-1.38q-.51-.41-.04-.88 5.51-5.38 12.39-8.84a.45.45 0 0 0-.18-.86c-6.01-.29-10.2 5.6-15.83 7.34q-10.14 3.15-18.02-4.41-.7-.68.18-.25c12.65 6.13 21.65-5.91 35.17-3.77 4.03.64 7.87-.76 12.11-.22 10.56 1.33 15.27 8.87 26.76 3.79q1.17-.51.24.36-8.71 8.21-20.16 3.04c-3.12-1.41-8.66-6.68-13.37-5.7q-.87.18-.08.59Z"/><rect width="2.5" height="2.5" x="-1.25" y="-1.25" fill="#1a64b7" rx=".87" transform="rotate(-3.4 3498.698 -2707.157)"/><rect width="2.48" height="2.52" x="-1.24" y="-1.26" fill="#1a64b7" rx=".89" transform="rotate(3.4 -3327.243 3086.793)"/><rect width="2.02" height="15.66" x="-1.01" y="-7.83" fill="#1a64b7" rx=".63" transform="rotate(.1 -119835.96 122711.877)"/><rect width="2.26" height="11.96" x="-1.13" y="-5.98" fill="#1a64b7" rx=".78" transform="rotate(-.1 119290.422 -145072.02)"/><path fill="#1a64b7" d="M89 210.41a.52.52 0 0 0 .99.03l2.33-7.17q.19-.57.79-.53l1.09.09a.44.43 14.2 0 1 .37.61q-2 4.48-3.21 9.28a1.9 1.89 42.6 0 1-3.63.15l-3.27-9.52q-.21-.62.45-.61l1.35.03q.52.01.67.51 1.09 3.55 2.07 7.13ZM141.5 210.47v2.72q0 .49-.44.7-.9.41-1.58-.45-.23-.28-.23-.64v-9.32q0-.58.58-.64c9.46-1.07 8.2 7.71 2.26 7.1q-.59-.06-.59.53Zm0-5.09v1.96a.65.65 0 0 0 .64.66h.5a1.85 1.45.2 0 0 1.86-1.44v-.36a1.85 1.45.2 0 0-1.84-1.46h-.5a.65.65 0 0 0-.66.64ZM229.05 211.25h-3.2a.77.75 6.7 0 0-.74.57l-.45 1.73q-.09.36-.46.38l-1.12.06a.61.61 0 0 1-.61-.81l3.31-9.32a1.87 1.87 0 0 1 3.53-.01l3.3 9.23q.27.73-.51.77l-1.22.06q-.59.03-.74-.55l-.39-1.56q-.13-.55-.7-.55Zm-2.91-2.46a.39.39 0 0 0 .39.49l1.86-.06a.39.39 0 0 0 .36-.52l-1.03-2.95a.39.39 0 0 0-.75.02l-.83 3.02ZM276.32 210.72a.22.22 0 0 0 .42-.1l.01-7.2q0-.5.5-.57l.86-.12q.68-.09.67.6-.1 4.58.04 9.28a1.6 1.6 0 0 1-3.01.8l-4.11-7.71q-.48-.9-.43.12l.31 7.33q.03.69-.66.76l-.73.08a.63.62-2.9 0 1-.69-.62v-9.34a1.67 1.67 0 0 1 3.16-.74l3.66 7.43ZM132.44 205.47l.89.07a.65.64-78.3 0 1 .56.86l-.11.3q-.13.38-.54.46l-.89.18q-.6.12-.6.73v2.98q0 .4.35.56l1.8.86q.7.34.07.8-2.08 1.52-3.81-.04a1.25 1.23 21.9 0 1-.41-.94q.01-1.98-.01-3.94a.98.96-77.6 0 0-.55-.88q-.85-.39-.66-1.32.1-.51.54-.78.68-.43.62-1.38a.99.99 0 0 1 1.97-.19l.14 1.07a.7.7 0 0 0 .64.6ZM172.5 207.95V211q0 .19.51.73.3.31.79.21a.99.85-55.3 0 1 .2 1.83q-1.57.48-2.93-.35a1.2 1.2 0 0 1-.57-1.02v-4.05q0-.5-.39-.81l-1.08-.89q-.57-.46.08-.8 1.25-.65 1.5-1.9a.8.8 0 0 1 1.56-.05l.3 1.15a.59.59 0 0 0 .57.45h.84q.62 0 .62.63v.46q0 .59-.59.64l-.8.06a.66.66 0 0 0-.61.66Z"/><path fill="#fff" d="M141.5 205.38a.65.65 0 0 1 .66-.64h.5a1.85 1.45.2 0 1 1.84 1.46v.36a1.85 1.45.2 0 1-1.86 1.44h-.5a.65.65 0 0 1-.64-.66v-1.96Z"/><path fill="#1a64b7" d="M124.92 208.35a1.34 1.34 0 0 0-2.66.22l-.02 4.85q0 .67-.66.6l-.92-.09q-.63-.07-.63-.7l-.08-7.53q-.01-.42.39-.3l1.67.46q.34.1.69.02l1.86-.41a2.21 2.21 0 0 1 2.69 2.16v5.78a.54.53-85.4 0 1-.61.53l-1.18-.18a.7.7 0 0 1-.58-.78q.37-2.68.04-4.63Z"/><rect width="2.24" height="8.72" x="-1.12" y="-4.36" fill="#1a64b7" rx=".99" transform="rotate(-.1 120197.677 -101383.173)"/><path fill="#1a64b7" d="M195.25 208.25a1.46 1.3-48.2 0 0-2.74.31l-.02 4.89a.58.58 0 0 1-.69.57l-.96-.18q-.59-.12-.59-.73l.01-7.32a.75.74-56.4 0 1 1.43-.29c.61 1.46 1.81.15 2.65 0 4.3-.78 3.18 5.49 3.15 7.83q-.01.79-.79.67l-.8-.12q-.65-.1-.65-.76v-4.87ZM236.25 206.12c5.64-3.62 7 6.99 2.16 7.86q-.5.09-.97-.14l-1.12-.56q-.64-.31-.56.39l.33 2.73q.07.6-.53.7l-1.09.16a.63.63 0 0 1-.72-.62v-10.81q0-1.04.86-.46l1.08.74q.28.19.56.01Zm1.017 5.763a2.25 1.66 94.4 0 0 1.828-2.116 2.25 1.66 94.4 0 0-1.482-2.37 2.25 1.66 94.4 0 0-1.828 2.116 2.25 1.66 94.4 0 0 1.482 2.37ZM245.64 206.1c4.77-3.01 6.89 5.04 2.49 7.77q-.38.24-.8.11l-1.72-.53q-.77-.23-.66.57.22 1.51-.09 3.02a1.36.95 61.2 0 1-2.09-1.04l.12-9.95a.76.76 0 0 1 1.22-.59l.79.61a.65.65 0 0 0 .74.03Zm.958 5.82a2.27 1.68 90.8 0 0 1.712-2.246 2.27 1.68 90.8 0 0-1.648-2.294 2.27 1.68 90.8 0 0-1.712 2.246 2.27 1.68 90.8 0 0 1.648 2.294ZM260.39 210.21c.62-1.37.82-5.57 3.17-4.56q.45.2.29.66l-3.52 10.38q-.22.64-.89.56l-1.11-.15a.56.56 0 0 1-.37-.91c1.74-2.11-1.15-7.57-1.97-9.93q-.26-.77.55-.83l.89-.06q.72-.05.93.64l1.27 4.15a.41.41 0 0 0 .76.05ZM298.77 210.53a.31.31 0 0 0 .6-.01l1.11-4.66a.78.77 5.6 0 1 .71-.58l.65-.03a.69.69 0 0 1 .7.87l-1.88 6.88a1.61 1.61 0 0 1-3.11-.03l-.81-3.22a.38.38 0 0 0-.74.01l-.8 3.53q-.14.62-.76.73c-3.05.5-3.63-5.74-4.17-7.82a.69.69 0 0 1 .36-.78c2.08-1.04 2.72 3.92 2.9 5.05a.36.36 0 0 0 .7.02l.99-4.25a1.22 1.22 0 0 1 2.37-.05l1.18 4.34ZM100.77 205.61a1.77 1.76 5.3 0 1 1.42 1.7l.09 6.16a.54.54 0 0 1-.76.5c-2.15-.96-4.52 1.16-6.02-1.44a2.31 2.3-33.9 0 1 .58-2.96q1.48-1.17 3.42-.78a.57.57 0 0 0 .43-1.03q-1.5-1.03-3.11-.03a.69.69 0 0 1-1.05-.48c-.34-2.21 3.89-1.85 5-1.64Zm-.682 4.84a1.39.85-24.2 0 0-1.616-.205 1.39.85-24.2 0 0-.92 1.345 1.39.85-24.2 0 0 1.616.205 1.39.85-24.2 0 0 .92-1.345ZM106.5 208.02c-.71 1.77.08 5.7 2.69 3.48a.66.66 0 0 1 1.05.71c-1.39 4.29-8.19.69-6.1-4.34.97-2.34 2.76-2.79 5.11-2.26a1.2 1.2 0 0 1 .32 2.22q-.37.22-1.12-.35a1.28 1.27 29.5 0 0-1.95.54ZM116.46 205.62a1.78 1.78 0 0 1 1.42 1.68l.23 6.09q.02.5-.49.46l-1.79-.16a2.74 2.62-49.5 0 0-.97.1q-2.36.71-3.73-1.36-.26-.4-.19-.87.54-3.23 4.08-2.76a.65.64 8.9 0 0 .72-.52c.29-1.58-2.85-.75-3.5-.55a.55.55 0 0 1-.72-.46c-.28-2.26 3.7-1.91 4.94-1.65Zm-.84 4.62q-1.08-.39-1.97.28a.93.84-78.2 0 0 .89 1.53l1.2-.86a.55.54-52.6 0 0-.12-.95ZM156.53 209.66a4.33 4.33 0 0 1-4.33 4.33 4.33 4.33 0 0 1-4.33-4.33 4.33 4.33 0 0 1 4.33-4.33 4.33 4.33 0 0 1 4.33 4.33Zm-4.458 2.345a2.35 2.03 93.6 0 0 2.174-2.218 2.35 2.03 93.6 0 0-1.878-2.472 2.35 2.03 93.6 0 0-2.174 2.218 2.35 2.03 93.6 0 0 1.878 2.472ZM160.2 207.48a.49.48 40.9 0 0 .07.92c7.34 1.73 1.49 7.83-2.1 4.97q-1.1-.88-.32-1.79.27-.33.63-.09 1.48.98 3.03.1a.41.41 0 0 0-.04-.73l-2.44-1.06a2.1 2.1 0 0 1-.74-3.32c1.13-1.29 5.65-1.79 5.16.97a.57.57 0 0 1-.9.36q-1.11-.81-2.35-.33Z"/><rect width="2.22" height="8.46" x="-1.11" y="-4.23" fill="#1a64b7" rx=".62" transform="rotate(-.6 20108.952 -15805.083)"/><path fill="#1a64b7" d="M188.69 209.67a4.33 4.33 0 0 1-4.33 4.33 4.33 4.33 0 0 1-4.33-4.33 4.33 4.33 0 0 1 4.33-4.33 4.33 4.33 0 0 1 4.33 4.33Zm-4.438 2.355a2.36 2.07 93.6 0 0 2.214-2.225 2.36 2.07 93.6 0 0-1.918-2.485 2.36 2.07 93.6 0 0-2.214 2.225 2.36 2.07 93.6 0 0 1.918 2.485ZM202.94 211.05l-2.56-1.37a2.12 2.12 0 0 1 .01-3.75q1.89-1 3.99-.04a.93.93 0 0 1-.58 1.76l-1.98-.43a.43.42-74.8 0 0-.49.29q-.05.15-.11.32a.13.13 0 0 0 .06.17l3.45 1.87a1.16 1.15-74.9 0 1 .61 1.07c-.14 3.49-5.64 4.07-6.32 1.12q-.21-.94.67-.56 1.51.64 3.12.36a.43.43 0 0 0 .13-.81Z"/><path fill="#fff" d="m226.14 208.79.83-3.02a.39.39 0 0 1 .75-.02l1.03 2.95a.39.39 0 0 1-.36.52l-1.86.06a.39.39 0 0 1-.39-.49Z"/><path fill="#1a64b7" d="M289.25 209.66a4.34 4.34 0 0 1-4.34 4.34 4.34 4.34 0 0 1-4.34-4.34 4.34 4.34 0 0 1 4.34-4.34 4.34 4.34 0 0 1 4.34 4.34Zm-4.556 2.338a2.34 2.08 92.6 0 0 2.184-2.244 2.34 2.08 92.6 0 0-1.972-2.432 2.34 2.08 92.6 0 0-2.184 2.244 2.34 2.08 92.6 0 0 1.972 2.432Z"/><ellipse fill="#fff" rx="2.35" ry="2.03" transform="rotate(93.6 -22.332 176.302)"/><ellipse fill="#fff" rx="2.36" ry="2.07" transform="rotate(93.6 -6.247 191.417)"/><ellipse fill="#fff" rx="2.34" ry="2.08" transform="rotate(92.6 42.222 240.91)"/><ellipse fill="#fff" rx="2.25" ry="1.66" transform="rotate(94.4 21.656 214.756)"/><ellipse fill="#fff" rx="2.27" ry="1.68" transform="rotate(90.8 19.944 226.43)"/><ellipse fill="#fff" rx="1.39" ry=".85" transform="rotate(-24.2 541.57 -124.967)"/><path fill="#fff" d="M115.62 210.24a.55.54-52.6 0 1 .12.95l-1.2.86a.93.84-78.2 0 1-.89-1.53q.89-.67 1.97-.28Z"/></svg>